%TF.GenerationSoftware,KiCad,Pcbnew,7.0.6*%
%TF.CreationDate,2024-04-07T09:56:08-04:00*%
%TF.ProjectId,Safe-To-Mate-O-Matic-v4,53616665-2d54-46f2-9d4d-6174652d4f2d,rev?*%
%TF.SameCoordinates,Original*%
%TF.FileFunction,Soldermask,Bot*%
%TF.FilePolarity,Negative*%
%FSLAX46Y46*%
G04 Gerber Fmt 4.6, Leading zero omitted, Abs format (unit mm)*
G04 Created by KiCad (PCBNEW 7.0.6) date 2024-04-07 09:56:08*
%MOMM*%
%LPD*%
G01*
G04 APERTURE LIST*
G04 Aperture macros list*
%AMRoundRect*
0 Rectangle with rounded corners*
0 $1 Rounding radius*
0 $2 $3 $4 $5 $6 $7 $8 $9 X,Y pos of 4 corners*
0 Add a 4 corners polygon primitive as box body*
4,1,4,$2,$3,$4,$5,$6,$7,$8,$9,$2,$3,0*
0 Add four circle primitives for the rounded corners*
1,1,$1+$1,$2,$3*
1,1,$1+$1,$4,$5*
1,1,$1+$1,$6,$7*
1,1,$1+$1,$8,$9*
0 Add four rect primitives between the rounded corners*
20,1,$1+$1,$2,$3,$4,$5,0*
20,1,$1+$1,$4,$5,$6,$7,0*
20,1,$1+$1,$6,$7,$8,$9,0*
20,1,$1+$1,$8,$9,$2,$3,0*%
G04 Aperture macros list end*
%ADD10C,2.200000*%
%ADD11R,1.800000X1.800000*%
%ADD12C,1.800000*%
%ADD13RoundRect,0.135000X0.135000X0.185000X-0.135000X0.185000X-0.135000X-0.185000X0.135000X-0.185000X0*%
%ADD14RoundRect,0.135000X-0.135000X-0.185000X0.135000X-0.185000X0.135000X0.185000X-0.135000X0.185000X0*%
%ADD15R,0.900000X1.500000*%
%ADD16R,1.500000X0.900000*%
%ADD17R,3.800000X3.800000*%
%ADD18RoundRect,0.140000X-0.140000X-0.170000X0.140000X-0.170000X0.140000X0.170000X-0.140000X0.170000X0*%
%ADD19RoundRect,0.135000X0.185000X-0.135000X0.185000X0.135000X-0.185000X0.135000X-0.185000X-0.135000X0*%
%ADD20C,0.990600*%
%ADD21C,0.787400*%
%ADD22RoundRect,0.140000X0.140000X0.170000X-0.140000X0.170000X-0.140000X-0.170000X0.140000X-0.170000X0*%
%ADD23C,1.500000*%
%ADD24RoundRect,0.140000X-0.170000X0.140000X-0.170000X-0.140000X0.170000X-0.140000X0.170000X0.140000X0*%
%ADD25RoundRect,0.237500X0.287500X0.237500X-0.287500X0.237500X-0.287500X-0.237500X0.287500X-0.237500X0*%
%ADD26RoundRect,0.237500X-0.237500X0.250000X-0.237500X-0.250000X0.237500X-0.250000X0.237500X0.250000X0*%
%ADD27RoundRect,0.135000X-0.185000X0.135000X-0.185000X-0.135000X0.185000X-0.135000X0.185000X0.135000X0*%
%ADD28R,1.400000X1.600000*%
%ADD29R,0.650000X0.400000*%
G04 APERTURE END LIST*
D10*
%TO.C,H4*%
X159512000Y-94755000D03*
%TD*%
D11*
%TO.C,D3*%
X172720000Y-84582000D03*
D12*
X172720000Y-82042000D03*
%TD*%
D10*
%TO.C,H3*%
X159512000Y-71895000D03*
%TD*%
%TO.C,H2*%
X141732000Y-71895000D03*
%TD*%
%TO.C,H1*%
X141732000Y-94755000D03*
%TD*%
D13*
%TO.C,R13*%
X165330600Y-83312000D03*
X164310600Y-83312000D03*
%TD*%
D14*
%TO.C,R2*%
X164310600Y-79629000D03*
X165330600Y-79629000D03*
%TD*%
D15*
%TO.C,U1*%
X138023600Y-74650600D03*
X139293600Y-74650600D03*
X140563600Y-74650600D03*
X141833600Y-74650600D03*
X143103600Y-74650600D03*
X144373600Y-74650600D03*
X145643600Y-74650600D03*
X146913600Y-74650600D03*
X148183600Y-74650600D03*
X149453600Y-74650600D03*
X150723600Y-74650600D03*
X151993600Y-74650600D03*
X153263600Y-74650600D03*
X154533600Y-74650600D03*
D16*
X155783600Y-77690600D03*
X155783600Y-78960600D03*
X155783600Y-80230600D03*
X155783600Y-81500600D03*
X155783600Y-82770600D03*
X155783600Y-84040600D03*
X155783600Y-85310600D03*
X155783600Y-86580600D03*
X155783600Y-87850600D03*
X155783600Y-89120600D03*
D15*
X154533600Y-92150600D03*
X153263600Y-92150600D03*
X151993600Y-92150600D03*
X150723600Y-92150600D03*
X149453600Y-92150600D03*
X148183600Y-92150600D03*
X146913600Y-92150600D03*
X145643600Y-92150600D03*
X144373600Y-92150600D03*
X143103600Y-92150600D03*
X141833600Y-92150600D03*
X140563600Y-92150600D03*
X139293600Y-92150600D03*
X138023600Y-92150600D03*
D17*
X145743600Y-81900600D03*
%TD*%
D18*
%TO.C,C4*%
X152682000Y-72593200D03*
X153642000Y-72593200D03*
%TD*%
D13*
%TO.C,R12*%
X169191400Y-83286600D03*
X168171400Y-83286600D03*
%TD*%
D19*
%TO.C,R4*%
X170764200Y-86895400D03*
X170764200Y-85875400D03*
%TD*%
D20*
%TO.C,J2*%
X161036000Y-89255600D03*
X166116000Y-88239600D03*
X166116000Y-90271600D03*
D21*
X162306000Y-88620600D03*
X162306000Y-89890600D03*
X163576000Y-88620600D03*
X163576000Y-89890600D03*
X164846000Y-88620600D03*
X164846000Y-89890600D03*
%TD*%
D22*
%TO.C,C1*%
X165300600Y-80899000D03*
X164340600Y-80899000D03*
%TD*%
D19*
%TO.C,R9*%
X171018200Y-81713800D03*
X171018200Y-80693800D03*
%TD*%
%TO.C,R8*%
X171018200Y-83695000D03*
X171018200Y-82675000D03*
%TD*%
D23*
%TO.C,TP2*%
X147751800Y-70485000D03*
%TD*%
D24*
%TO.C,C6*%
X168554400Y-85905400D03*
X168554400Y-86865400D03*
%TD*%
D23*
%TO.C,TP5*%
X173812200Y-77241400D03*
%TD*%
D25*
%TO.C,D2*%
X160285400Y-85623400D03*
X158535400Y-85623400D03*
%TD*%
D13*
%TO.C,R5*%
X165330600Y-81940400D03*
X164310600Y-81940400D03*
%TD*%
D22*
%TO.C,C5*%
X148206400Y-72618600D03*
X147246400Y-72618600D03*
%TD*%
D23*
%TO.C,TP3*%
X151993600Y-94234000D03*
%TD*%
D26*
%TO.C,R6*%
X157632400Y-87200100D03*
X157632400Y-89025100D03*
%TD*%
D14*
%TO.C,R10*%
X168171400Y-84353400D03*
X169191400Y-84353400D03*
%TD*%
D18*
%TO.C,C2*%
X167541000Y-79273400D03*
X168501000Y-79273400D03*
%TD*%
D14*
%TO.C,R11*%
X164310600Y-84353400D03*
X165330600Y-84353400D03*
%TD*%
D27*
%TO.C,R7*%
X169595800Y-85875400D03*
X169595800Y-86895400D03*
%TD*%
%TO.C,R16*%
X159385000Y-91184000D03*
X159385000Y-92204000D03*
%TD*%
D28*
%TO.C,SW1*%
X161037400Y-82822600D03*
X161037400Y-75622600D03*
X158037400Y-82822600D03*
X158037400Y-75622600D03*
%TD*%
D29*
%TO.C,U2*%
X168945600Y-80553800D03*
X168945600Y-81203800D03*
X168945600Y-81853800D03*
X167045600Y-81853800D03*
X167045600Y-80553800D03*
%TD*%
M02*
