M48
; DRILL file {KiCad 7.0.6} date Sun Apr  7 09:56:10 2024
; FORMAT={-:-/ absolute / inch / decimal}
; #@! TF.CreationDate,2024-04-07T09:56:10-04:00
; #@! TF.GenerationSoftware,Kicad,Pcbnew,7.0.6
; #@! TF.FileFunction,Plated,1,4,PTH
FMAT,2
INCH
; #@! TA.AperFunction,Plated,PTH,ViaDrill
T1C0.0157
; #@! TA.AperFunction,Plated,PTH,ComponentDrill
T2C0.0354
%
G90
G05
T1
X5.4495Y-3.3042
X5.45Y-3.05
X5.45Y-3.1
X5.45Y-3.15
X5.45Y-3.2
X5.45Y-3.25
X5.45Y-3.35
X5.45Y-3.4
X5.45Y-3.45
X5.45Y-3.5
X5.45Y-3.55
X5.5Y-3.7
X5.53Y-3.0
X5.698Y-3.786
X5.748Y-3.786
X5.76Y-2.86
X5.877Y-2.787
X5.878Y-3.773
X5.921Y-2.787
X5.922Y-3.773
X5.968Y-2.787
X5.969Y-3.773
X6.012Y-2.787
X6.013Y-3.773
X6.092Y-2.858
X6.1Y-2.8
X6.11Y-3.71
X6.15Y-2.85
X6.193Y-2.923
X6.275Y-3.54
X6.278Y-3.055
X6.2866Y-3.4333
X6.34Y-3.58
X6.354Y-3.343
X6.38Y-3.6
X6.387Y-3.055
X6.387Y-3.4001
X6.402Y-3.008
X6.42Y-3.44
X6.43Y-3.6
X6.538Y-3.095
X6.5904Y-3.2554
X6.63Y-3.01
X6.63Y-3.05
X6.632Y-3.568
X6.67Y-3.01
X6.67Y-3.05
X6.71Y-3.01
X6.71Y-3.05
X6.75Y-3.01
X6.75Y-3.05
X6.75Y-3.09
X6.772Y-3.421
X6.82Y-3.15
X6.828Y-3.405
T2
X6.8Y-3.23
X6.8Y-3.33
T0
M30
