%TF.GenerationSoftware,KiCad,Pcbnew,7.0.6*%
%TF.CreationDate,2024-04-07T09:56:07-04:00*%
%TF.ProjectId,Safe-To-Mate-O-Matic-v4,53616665-2d54-46f2-9d4d-6174652d4f2d,rev?*%
%TF.SameCoordinates,Original*%
%TF.FileFunction,Copper,L2,Inr*%
%TF.FilePolarity,Positive*%
%FSLAX46Y46*%
G04 Gerber Fmt 4.6, Leading zero omitted, Abs format (unit mm)*
G04 Created by KiCad (PCBNEW 7.0.6) date 2024-04-07 09:56:07*
%MOMM*%
%LPD*%
G01*
G04 APERTURE LIST*
%TA.AperFunction,ComponentPad*%
%ADD10R,1.800000X1.800000*%
%TD*%
%TA.AperFunction,ComponentPad*%
%ADD11C,1.800000*%
%TD*%
%TA.AperFunction,ViaPad*%
%ADD12C,0.800000*%
%TD*%
G04 APERTURE END LIST*
D10*
%TO.N,Net-(D3-K)*%
%TO.C,D3*%
X172720000Y-84582000D03*
D11*
%TO.N,Net-(D3-A)*%
X172720000Y-82042000D03*
%TD*%
D12*
%TO.N,VDD*%
X149275800Y-70789800D03*
X161036000Y-90932000D03*
X152730200Y-95834200D03*
X151587200Y-70789800D03*
X149301200Y-95834200D03*
X151612600Y-95834200D03*
X150393400Y-70789800D03*
X166065200Y-78613000D03*
X167395267Y-82686644D03*
X162610800Y-76403200D03*
X150418800Y-95834200D03*
X152704800Y-70789800D03*
X172008800Y-86893400D03*
%TO.N,GND*%
X163322000Y-91440000D03*
X170434000Y-77470000D03*
X168402000Y-77470000D03*
X168402000Y-76454000D03*
X173431200Y-86487000D03*
X171450000Y-76454000D03*
X168452800Y-90627200D03*
X145999200Y-96164400D03*
X138430000Y-77470000D03*
X138430000Y-80010000D03*
X171450000Y-77470000D03*
X139700000Y-93980000D03*
X138430000Y-82550000D03*
X138418570Y-83925477D03*
X138430000Y-78740000D03*
X146304000Y-72644000D03*
X138430000Y-87630000D03*
X156210000Y-72390000D03*
X138430000Y-85090000D03*
X138430000Y-88900000D03*
X169418000Y-76454000D03*
X138430000Y-90170000D03*
X144729200Y-96164400D03*
X169418000Y-77470000D03*
X170434000Y-76454000D03*
X138430000Y-81280000D03*
X154940000Y-71120000D03*
X171450000Y-78486000D03*
X154736800Y-72593200D03*
X159679553Y-87204954D03*
X138430000Y-86360000D03*
%TO.N,RXD0*%
X163068000Y-87376000D03*
X159385000Y-89916000D03*
%TO.N,ESP32_EN*%
X140462000Y-76200000D03*
X162052000Y-91440000D03*
%TO.N,ON_n*%
X159461200Y-77597000D03*
X162229800Y-86361700D03*
X162229800Y-77597000D03*
%TO.N,RXD2*%
X155194000Y-94234000D03*
X173228000Y-80010000D03*
%TO.N,Net-(Q2-C)*%
X161391600Y-84912200D03*
%TO.N,Net-(R15-Pad2)*%
X157302200Y-74244200D03*
%TD*%
%TA.AperFunction,Conductor*%
%TO.N,GND*%
G36*
X148704025Y-69870002D02*
G01*
X148750518Y-69923658D01*
X148760622Y-69993932D01*
X148731128Y-70058512D01*
X148709965Y-70077936D01*
X148664544Y-70110935D01*
X148536765Y-70252848D01*
X148536758Y-70252858D01*
X148441276Y-70418238D01*
X148441273Y-70418245D01*
X148382257Y-70599872D01*
X148362296Y-70789799D01*
X148382257Y-70979727D01*
X148396515Y-71023607D01*
X148441273Y-71161356D01*
X148441276Y-71161361D01*
X148536758Y-71326741D01*
X148536765Y-71326751D01*
X148664544Y-71468664D01*
X148664547Y-71468666D01*
X148819048Y-71580918D01*
X148993512Y-71658594D01*
X149180313Y-71698300D01*
X149371287Y-71698300D01*
X149558088Y-71658594D01*
X149732552Y-71580918D01*
X149760541Y-71560582D01*
X149827401Y-71536725D01*
X149896553Y-71552803D01*
X149908648Y-71560575D01*
X149936648Y-71580918D01*
X150111112Y-71658594D01*
X150297913Y-71698300D01*
X150488887Y-71698300D01*
X150675688Y-71658594D01*
X150850152Y-71580918D01*
X150916241Y-71532900D01*
X150983106Y-71509044D01*
X151052258Y-71525124D01*
X151064344Y-71532890D01*
X151130448Y-71580918D01*
X151304912Y-71658594D01*
X151491713Y-71698300D01*
X151682687Y-71698300D01*
X151869488Y-71658594D01*
X152043952Y-71580918D01*
X152071941Y-71560582D01*
X152138804Y-71536725D01*
X152207956Y-71552804D01*
X152220045Y-71560572D01*
X152248048Y-71580918D01*
X152422512Y-71658594D01*
X152609313Y-71698300D01*
X152800287Y-71698300D01*
X152987088Y-71658594D01*
X153161552Y-71580918D01*
X153316053Y-71468666D01*
X153443840Y-71326744D01*
X153539327Y-71161356D01*
X153598342Y-70979728D01*
X153618304Y-70789800D01*
X153598342Y-70599872D01*
X153539327Y-70418244D01*
X153443840Y-70252856D01*
X153443838Y-70252854D01*
X153443834Y-70252848D01*
X153316055Y-70110935D01*
X153270635Y-70077936D01*
X153227281Y-70021714D01*
X153221206Y-69950978D01*
X153254337Y-69888186D01*
X153316157Y-69853275D01*
X153344696Y-69850000D01*
X160218082Y-69850000D01*
X160286203Y-69870002D01*
X160311515Y-69891464D01*
X165100000Y-75184000D01*
X175388000Y-75184000D01*
X175456121Y-75204002D01*
X175502614Y-75257658D01*
X175514000Y-75310000D01*
X175514000Y-91060000D01*
X175493998Y-91128121D01*
X175440342Y-91174614D01*
X175388000Y-91186000D01*
X166498860Y-91186000D01*
X166430739Y-91165998D01*
X166384246Y-91112342D01*
X166374142Y-91042068D01*
X166403636Y-90977488D01*
X166447227Y-90947477D01*
X166446436Y-90945901D01*
X166452989Y-90942609D01*
X166452993Y-90942608D01*
X166598654Y-90846805D01*
X166718296Y-90719993D01*
X166805467Y-90569007D01*
X166855469Y-90401988D01*
X166865607Y-90227940D01*
X166835332Y-90056246D01*
X166766279Y-89896162D01*
X166756442Y-89882949D01*
X166662168Y-89756317D01*
X166528615Y-89644251D01*
X166450369Y-89604955D01*
X166372815Y-89566006D01*
X166203171Y-89525800D01*
X166072564Y-89525800D01*
X166072561Y-89525800D01*
X165942835Y-89540963D01*
X165779006Y-89600592D01*
X165779003Y-89600593D01*
X165633346Y-89696394D01*
X165513703Y-89823207D01*
X165426535Y-89974187D01*
X165426533Y-89974193D01*
X165376531Y-90141212D01*
X165366393Y-90315260D01*
X165396668Y-90486954D01*
X165396669Y-90486956D01*
X165465719Y-90647035D01*
X165465721Y-90647039D01*
X165569831Y-90786882D01*
X165703384Y-90898948D01*
X165703386Y-90898949D01*
X165799866Y-90947402D01*
X165851763Y-90995849D01*
X165869231Y-91064663D01*
X165846721Y-91131997D01*
X165791382Y-91176472D01*
X165743317Y-91186000D01*
X165100000Y-91186000D01*
X160361209Y-96673022D01*
X160311693Y-96730356D01*
X160252030Y-96768838D01*
X160216333Y-96774000D01*
X153370096Y-96774000D01*
X153301975Y-96753998D01*
X153255482Y-96700342D01*
X153245378Y-96630068D01*
X153274872Y-96565488D01*
X153296035Y-96546064D01*
X153327100Y-96523494D01*
X153341453Y-96513066D01*
X153469240Y-96371144D01*
X153564727Y-96205756D01*
X153623742Y-96024128D01*
X153643704Y-95834200D01*
X153623742Y-95644272D01*
X153564727Y-95462644D01*
X153469240Y-95297256D01*
X153469238Y-95297254D01*
X153469234Y-95297248D01*
X153341455Y-95155335D01*
X153186952Y-95043082D01*
X153012488Y-94965406D01*
X152825687Y-94925700D01*
X152634713Y-94925700D01*
X152447911Y-94965406D01*
X152273446Y-95043082D01*
X152273443Y-95043084D01*
X152245457Y-95063417D01*
X152178589Y-95087274D01*
X152109438Y-95071191D01*
X152097338Y-95063415D01*
X152069352Y-95043082D01*
X151894888Y-94965406D01*
X151708087Y-94925700D01*
X151517113Y-94925700D01*
X151330311Y-94965406D01*
X151155847Y-95043082D01*
X151089760Y-95091097D01*
X151022892Y-95114955D01*
X150953741Y-95098873D01*
X150941640Y-95091097D01*
X150875552Y-95043082D01*
X150875553Y-95043082D01*
X150701088Y-94965406D01*
X150514287Y-94925700D01*
X150323313Y-94925700D01*
X150136511Y-94965406D01*
X149962043Y-95043084D01*
X149934061Y-95063415D01*
X149867193Y-95087273D01*
X149798042Y-95071193D01*
X149785939Y-95063415D01*
X149757956Y-95043084D01*
X149717601Y-95025117D01*
X149583488Y-94965406D01*
X149396687Y-94925700D01*
X149205713Y-94925700D01*
X149018911Y-94965406D01*
X148844447Y-95043082D01*
X148689944Y-95155335D01*
X148562165Y-95297248D01*
X148562158Y-95297258D01*
X148466676Y-95462638D01*
X148466673Y-95462645D01*
X148407657Y-95644272D01*
X148387696Y-95834199D01*
X148407657Y-96024127D01*
X148429081Y-96090062D01*
X148466673Y-96205756D01*
X148466676Y-96205761D01*
X148562158Y-96371141D01*
X148562165Y-96371151D01*
X148689944Y-96513064D01*
X148735365Y-96546064D01*
X148778719Y-96602286D01*
X148784794Y-96673022D01*
X148751663Y-96735814D01*
X148689843Y-96770725D01*
X148661304Y-96774000D01*
X141024754Y-96774000D01*
X140956633Y-96753998D01*
X140932641Y-96733972D01*
X139085600Y-94754999D01*
X140376341Y-94754999D01*
X140396937Y-94990411D01*
X140458096Y-95218661D01*
X140458098Y-95218665D01*
X140557966Y-95432832D01*
X140693498Y-95626392D01*
X140693502Y-95626397D01*
X140693505Y-95626401D01*
X140860599Y-95793495D01*
X140860603Y-95793498D01*
X140860607Y-95793501D01*
X141054167Y-95929033D01*
X141054166Y-95929033D01*
X141130304Y-95964536D01*
X141268337Y-96028903D01*
X141496592Y-96090063D01*
X141673034Y-96105500D01*
X141673035Y-96105500D01*
X141790965Y-96105500D01*
X141790966Y-96105500D01*
X141967408Y-96090063D01*
X142195663Y-96028903D01*
X142409829Y-95929035D01*
X142603401Y-95793495D01*
X142770495Y-95626401D01*
X142906035Y-95432830D01*
X143005903Y-95218663D01*
X143067063Y-94990408D01*
X143087659Y-94755000D01*
X143067063Y-94519592D01*
X143005903Y-94291337D01*
X142979166Y-94234000D01*
X154280496Y-94234000D01*
X154300457Y-94423927D01*
X154330526Y-94516470D01*
X154359473Y-94605556D01*
X154359476Y-94605561D01*
X154454958Y-94770941D01*
X154454965Y-94770951D01*
X154582744Y-94912864D01*
X154582747Y-94912866D01*
X154737248Y-95025118D01*
X154911712Y-95102794D01*
X155098513Y-95142500D01*
X155289487Y-95142500D01*
X155476288Y-95102794D01*
X155650752Y-95025118D01*
X155805253Y-94912866D01*
X155933040Y-94770944D01*
X155942245Y-94755000D01*
X158156341Y-94755000D01*
X158176937Y-94990411D01*
X158238096Y-95218661D01*
X158238098Y-95218665D01*
X158337966Y-95432832D01*
X158473498Y-95626392D01*
X158473502Y-95626397D01*
X158473505Y-95626401D01*
X158640599Y-95793495D01*
X158640603Y-95793498D01*
X158640607Y-95793501D01*
X158834167Y-95929033D01*
X158834166Y-95929033D01*
X158910304Y-95964537D01*
X159048337Y-96028903D01*
X159276592Y-96090063D01*
X159453034Y-96105500D01*
X159453035Y-96105500D01*
X159570965Y-96105500D01*
X159570966Y-96105500D01*
X159747408Y-96090063D01*
X159975663Y-96028903D01*
X160189829Y-95929035D01*
X160383401Y-95793495D01*
X160550495Y-95626401D01*
X160686035Y-95432830D01*
X160785903Y-95218663D01*
X160847063Y-94990408D01*
X160867659Y-94755000D01*
X160847063Y-94519592D01*
X160785903Y-94291337D01*
X160686035Y-94077171D01*
X160686034Y-94077169D01*
X160686033Y-94077167D01*
X160550501Y-93883607D01*
X160550497Y-93883602D01*
X160550495Y-93883599D01*
X160383401Y-93716505D01*
X160383397Y-93716502D01*
X160383392Y-93716498D01*
X160189832Y-93580966D01*
X160189833Y-93580966D01*
X159975665Y-93481098D01*
X159975661Y-93481096D01*
X159747411Y-93419937D01*
X159615076Y-93408359D01*
X159570966Y-93404500D01*
X159453034Y-93404500D01*
X159417745Y-93407587D01*
X159276588Y-93419937D01*
X159048338Y-93481096D01*
X159048334Y-93481098D01*
X158834167Y-93580966D01*
X158640607Y-93716498D01*
X158640596Y-93716507D01*
X158473507Y-93883596D01*
X158473502Y-93883602D01*
X158337965Y-94077169D01*
X158238098Y-94291334D01*
X158238096Y-94291338D01*
X158176937Y-94519588D01*
X158156341Y-94755000D01*
X155942245Y-94755000D01*
X156028527Y-94605556D01*
X156087542Y-94423928D01*
X156107504Y-94234000D01*
X156087542Y-94044072D01*
X156028527Y-93862444D01*
X155933040Y-93697056D01*
X155933038Y-93697054D01*
X155933034Y-93697048D01*
X155805255Y-93555135D01*
X155650752Y-93442882D01*
X155476288Y-93365206D01*
X155289487Y-93325500D01*
X155098513Y-93325500D01*
X154911711Y-93365206D01*
X154737247Y-93442882D01*
X154582744Y-93555135D01*
X154454965Y-93697048D01*
X154454958Y-93697058D01*
X154359476Y-93862438D01*
X154359473Y-93862445D01*
X154300457Y-94044072D01*
X154280496Y-94234000D01*
X142979166Y-94234000D01*
X142906035Y-94077171D01*
X142906034Y-94077169D01*
X142906033Y-94077167D01*
X142770501Y-93883607D01*
X142770497Y-93883602D01*
X142770495Y-93883599D01*
X142603401Y-93716505D01*
X142603397Y-93716502D01*
X142603392Y-93716498D01*
X142409832Y-93580966D01*
X142409833Y-93580966D01*
X142195665Y-93481098D01*
X142195661Y-93481096D01*
X141967411Y-93419937D01*
X141835076Y-93408359D01*
X141790966Y-93404500D01*
X141673034Y-93404500D01*
X141637745Y-93407587D01*
X141496588Y-93419937D01*
X141268338Y-93481096D01*
X141268334Y-93481098D01*
X141054167Y-93580966D01*
X140860607Y-93716498D01*
X140860596Y-93716507D01*
X140693507Y-93883596D01*
X140693502Y-93883602D01*
X140557965Y-94077169D01*
X140458098Y-94291334D01*
X140458096Y-94291338D01*
X140396937Y-94519588D01*
X140376341Y-94754999D01*
X139085600Y-94754999D01*
X137447887Y-93000307D01*
X137416030Y-92936859D01*
X137414000Y-92914335D01*
X137414000Y-89915999D01*
X158471496Y-89915999D01*
X158491457Y-90105927D01*
X158512546Y-90170830D01*
X158550473Y-90287556D01*
X158550476Y-90287561D01*
X158645958Y-90452941D01*
X158645965Y-90452951D01*
X158773744Y-90594864D01*
X158773747Y-90594866D01*
X158928248Y-90707118D01*
X159102712Y-90784794D01*
X159289513Y-90824500D01*
X159480487Y-90824500D01*
X159667288Y-90784794D01*
X159841752Y-90707118D01*
X159942346Y-90634031D01*
X160009210Y-90610175D01*
X160078362Y-90626255D01*
X160127842Y-90677168D01*
X160141942Y-90746751D01*
X160141714Y-90749138D01*
X160122496Y-90931999D01*
X160142457Y-91121927D01*
X160163276Y-91186000D01*
X160201473Y-91303556D01*
X160201476Y-91303561D01*
X160296958Y-91468941D01*
X160296965Y-91468951D01*
X160424744Y-91610864D01*
X160424747Y-91610866D01*
X160579248Y-91723118D01*
X160753712Y-91800794D01*
X160940513Y-91840500D01*
X161131483Y-91840500D01*
X161131487Y-91840500D01*
X161133410Y-91840091D01*
X161134549Y-91840178D01*
X161138050Y-91839810D01*
X161138117Y-91840450D01*
X161204198Y-91845489D01*
X161260833Y-91888302D01*
X161268730Y-91900336D01*
X161312958Y-91976941D01*
X161312965Y-91976951D01*
X161440744Y-92118864D01*
X161440747Y-92118866D01*
X161595248Y-92231118D01*
X161769712Y-92308794D01*
X161956513Y-92348500D01*
X162147487Y-92348500D01*
X162334288Y-92308794D01*
X162508752Y-92231118D01*
X162663253Y-92118866D01*
X162791040Y-91976944D01*
X162886527Y-91811556D01*
X162945542Y-91629928D01*
X162965504Y-91440000D01*
X162945542Y-91250072D01*
X162886527Y-91068444D01*
X162791040Y-90903056D01*
X162791038Y-90903054D01*
X162791034Y-90903048D01*
X162663255Y-90761135D01*
X162508752Y-90648882D01*
X162334288Y-90571206D01*
X162147487Y-90531500D01*
X161956513Y-90531500D01*
X161956504Y-90531500D01*
X161954572Y-90531911D01*
X161953428Y-90531823D01*
X161949942Y-90532190D01*
X161949874Y-90531552D01*
X161883782Y-90526502D01*
X161827154Y-90483679D01*
X161819269Y-90471663D01*
X161775040Y-90395056D01*
X161775036Y-90395051D01*
X161775034Y-90395048D01*
X161647255Y-90253135D01*
X161492752Y-90140882D01*
X161437598Y-90116326D01*
X161383502Y-90070345D01*
X161362853Y-90002418D01*
X161382206Y-89934110D01*
X161419605Y-89895950D01*
X161518654Y-89830805D01*
X161638296Y-89703993D01*
X161725467Y-89553007D01*
X161775469Y-89385988D01*
X161785607Y-89211940D01*
X161755332Y-89040246D01*
X161686279Y-88880162D01*
X161676442Y-88866949D01*
X161582168Y-88740317D01*
X161448615Y-88628251D01*
X161370369Y-88588955D01*
X161292815Y-88550006D01*
X161123171Y-88509800D01*
X160992564Y-88509800D01*
X160992561Y-88509800D01*
X160862835Y-88524963D01*
X160699006Y-88584592D01*
X160699003Y-88584593D01*
X160553346Y-88680394D01*
X160433703Y-88807207D01*
X160346535Y-88958187D01*
X160346533Y-88958193D01*
X160319885Y-89047206D01*
X160296531Y-89125213D01*
X160289706Y-89242370D01*
X160265776Y-89309212D01*
X160209507Y-89352506D01*
X160138764Y-89358506D01*
X160076008Y-89325306D01*
X160070282Y-89319352D01*
X160000967Y-89242370D01*
X159996253Y-89237134D01*
X159841752Y-89124882D01*
X159667288Y-89047206D01*
X159480487Y-89007500D01*
X159289513Y-89007500D01*
X159102711Y-89047206D01*
X158928247Y-89124882D01*
X158773744Y-89237135D01*
X158645965Y-89379048D01*
X158645958Y-89379058D01*
X158550476Y-89544438D01*
X158550473Y-89544445D01*
X158491457Y-89726072D01*
X158471496Y-89915999D01*
X137414000Y-89915999D01*
X137414000Y-84912200D01*
X160478096Y-84912200D01*
X160498057Y-85102127D01*
X160528126Y-85194670D01*
X160557073Y-85283756D01*
X160557076Y-85283761D01*
X160652558Y-85449141D01*
X160652565Y-85449151D01*
X160780344Y-85591064D01*
X160780347Y-85591066D01*
X160934848Y-85703318D01*
X161109312Y-85780994D01*
X161296113Y-85820700D01*
X161302572Y-85822073D01*
X161301982Y-85824847D01*
X161356104Y-85847087D01*
X161396760Y-85905290D01*
X161399495Y-85976234D01*
X161397154Y-85984356D01*
X161395273Y-85990142D01*
X161395273Y-85990144D01*
X161384076Y-86024606D01*
X161336257Y-86171772D01*
X161316296Y-86361700D01*
X161336257Y-86551627D01*
X161347063Y-86584882D01*
X161395273Y-86733256D01*
X161395276Y-86733261D01*
X161490758Y-86898641D01*
X161490765Y-86898651D01*
X161618544Y-87040564D01*
X161618547Y-87040566D01*
X161773048Y-87152818D01*
X161947512Y-87230494D01*
X162054693Y-87253276D01*
X162117166Y-87287005D01*
X162151488Y-87349154D01*
X162153717Y-87369442D01*
X162153806Y-87369433D01*
X162174457Y-87565927D01*
X162176517Y-87572266D01*
X162233473Y-87747556D01*
X162233476Y-87747561D01*
X162328958Y-87912941D01*
X162328965Y-87912951D01*
X162456744Y-88054864D01*
X162456747Y-88054866D01*
X162611248Y-88167118D01*
X162785712Y-88244794D01*
X162972513Y-88284500D01*
X163163487Y-88284500D01*
X163169321Y-88283260D01*
X165366393Y-88283260D01*
X165396668Y-88454954D01*
X165396669Y-88454956D01*
X165465719Y-88615035D01*
X165465721Y-88615039D01*
X165569831Y-88754882D01*
X165703384Y-88866948D01*
X165703386Y-88866949D01*
X165859185Y-88945194D01*
X166028829Y-88985400D01*
X166028831Y-88985400D01*
X166159439Y-88985400D01*
X166193117Y-88981463D01*
X166289164Y-88970237D01*
X166452993Y-88910608D01*
X166598654Y-88814805D01*
X166718296Y-88687993D01*
X166805467Y-88537007D01*
X166855469Y-88369988D01*
X166865607Y-88195940D01*
X166835332Y-88024246D01*
X166766279Y-87864162D01*
X166690366Y-87762194D01*
X166662168Y-87724317D01*
X166528615Y-87612251D01*
X166448993Y-87572264D01*
X166372815Y-87534006D01*
X166203171Y-87493800D01*
X166072564Y-87493800D01*
X166072561Y-87493800D01*
X165942835Y-87508963D01*
X165779006Y-87568592D01*
X165779003Y-87568593D01*
X165633346Y-87664394D01*
X165513703Y-87791207D01*
X165426535Y-87942187D01*
X165426533Y-87942193D01*
X165376531Y-88109213D01*
X165368634Y-88244794D01*
X165366393Y-88283260D01*
X163169321Y-88283260D01*
X163350288Y-88244794D01*
X163524752Y-88167118D01*
X163679253Y-88054866D01*
X163679255Y-88054864D01*
X163807034Y-87912951D01*
X163807035Y-87912949D01*
X163807040Y-87912944D01*
X163902527Y-87747556D01*
X163961542Y-87565928D01*
X163981504Y-87376000D01*
X163961542Y-87186072D01*
X163902527Y-87004444D01*
X163838416Y-86893400D01*
X171095296Y-86893400D01*
X171115257Y-87083327D01*
X171137837Y-87152818D01*
X171174273Y-87264956D01*
X171174276Y-87264961D01*
X171269758Y-87430341D01*
X171269765Y-87430351D01*
X171397544Y-87572264D01*
X171397547Y-87572266D01*
X171552048Y-87684518D01*
X171726512Y-87762194D01*
X171913313Y-87801900D01*
X172104287Y-87801900D01*
X172291088Y-87762194D01*
X172465552Y-87684518D01*
X172620053Y-87572266D01*
X172654502Y-87534007D01*
X172747834Y-87430351D01*
X172747835Y-87430349D01*
X172747840Y-87430344D01*
X172843327Y-87264956D01*
X172902342Y-87083328D01*
X172922304Y-86893400D01*
X172902342Y-86703472D01*
X172843327Y-86521844D01*
X172747840Y-86356456D01*
X172747838Y-86356454D01*
X172747834Y-86356448D01*
X172620057Y-86214537D01*
X172615173Y-86210140D01*
X172577930Y-86149695D01*
X172579279Y-86078712D01*
X172618790Y-86019725D01*
X172683920Y-85991464D01*
X172699479Y-85990500D01*
X173668632Y-85990500D01*
X173668638Y-85990500D01*
X173668645Y-85990499D01*
X173668649Y-85990499D01*
X173729196Y-85983990D01*
X173729199Y-85983989D01*
X173729201Y-85983989D01*
X173866204Y-85932889D01*
X173983261Y-85845261D01*
X174070889Y-85728204D01*
X174121989Y-85591201D01*
X174128500Y-85530638D01*
X174128500Y-83633362D01*
X174128499Y-83633350D01*
X174121990Y-83572803D01*
X174121988Y-83572795D01*
X174070889Y-83435797D01*
X174070887Y-83435792D01*
X173983261Y-83318738D01*
X173866207Y-83231112D01*
X173866204Y-83231111D01*
X173798824Y-83205979D01*
X173741989Y-83163432D01*
X173717179Y-83096911D01*
X173732271Y-83027538D01*
X173750156Y-83002588D01*
X173835314Y-82910083D01*
X173962984Y-82714669D01*
X174056749Y-82500907D01*
X174114051Y-82274626D01*
X174133327Y-82042000D01*
X174114051Y-81809374D01*
X174056749Y-81583093D01*
X173962984Y-81369331D01*
X173962984Y-81369330D01*
X173835314Y-81173916D01*
X173677231Y-81002193D01*
X173677225Y-81002187D01*
X173677220Y-81002182D01*
X173677213Y-81002177D01*
X173673392Y-80998659D01*
X173674665Y-80997275D01*
X173637973Y-80946277D01*
X173634249Y-80875378D01*
X173669447Y-80813721D01*
X173682780Y-80802550D01*
X173684749Y-80801119D01*
X173684752Y-80801118D01*
X173839253Y-80688866D01*
X173855111Y-80671254D01*
X173967034Y-80546951D01*
X173967035Y-80546949D01*
X173967040Y-80546944D01*
X174062527Y-80381556D01*
X174121542Y-80199928D01*
X174141504Y-80010000D01*
X174121542Y-79820072D01*
X174062527Y-79638444D01*
X173967040Y-79473056D01*
X173967038Y-79473054D01*
X173967034Y-79473048D01*
X173839255Y-79331135D01*
X173684752Y-79218882D01*
X173510288Y-79141206D01*
X173323487Y-79101500D01*
X173132513Y-79101500D01*
X172945711Y-79141206D01*
X172771247Y-79218882D01*
X172616744Y-79331135D01*
X172488965Y-79473048D01*
X172488958Y-79473058D01*
X172393476Y-79638438D01*
X172393473Y-79638445D01*
X172334457Y-79820072D01*
X172314496Y-80010000D01*
X172334457Y-80199927D01*
X172364526Y-80292470D01*
X172393473Y-80381556D01*
X172393476Y-80381561D01*
X172453840Y-80486115D01*
X172470578Y-80555110D01*
X172447358Y-80622202D01*
X172391550Y-80666089D01*
X172375675Y-80671254D01*
X172373055Y-80671917D01*
X172152276Y-80747711D01*
X172152273Y-80747713D01*
X172030301Y-80813721D01*
X171946985Y-80858809D01*
X171946983Y-80858810D01*
X171762778Y-81002182D01*
X171762774Y-81002186D01*
X171604685Y-81173916D01*
X171477015Y-81369331D01*
X171383252Y-81583089D01*
X171383249Y-81583096D01*
X171325950Y-81809366D01*
X171325949Y-81809372D01*
X171325949Y-81809374D01*
X171306673Y-82042000D01*
X171315597Y-82149702D01*
X171325950Y-82274633D01*
X171383249Y-82500903D01*
X171383252Y-82500910D01*
X171477015Y-82714668D01*
X171582791Y-82876571D01*
X171604686Y-82910083D01*
X171689842Y-83002587D01*
X171721263Y-83066251D01*
X171713276Y-83136797D01*
X171668417Y-83191826D01*
X171641175Y-83205979D01*
X171573795Y-83231111D01*
X171573792Y-83231112D01*
X171456738Y-83318738D01*
X171369112Y-83435792D01*
X171369110Y-83435797D01*
X171318011Y-83572795D01*
X171318009Y-83572803D01*
X171311500Y-83633350D01*
X171311500Y-85530649D01*
X171318009Y-85591196D01*
X171318011Y-85591204D01*
X171369110Y-85728202D01*
X171369112Y-85728207D01*
X171456738Y-85845261D01*
X171541148Y-85908449D01*
X171583695Y-85965284D01*
X171588760Y-86036100D01*
X171554735Y-86098412D01*
X171539700Y-86111253D01*
X171397544Y-86214535D01*
X171269765Y-86356448D01*
X171269758Y-86356458D01*
X171174276Y-86521838D01*
X171174273Y-86521845D01*
X171115257Y-86703472D01*
X171095296Y-86893400D01*
X163838416Y-86893400D01*
X163807040Y-86839056D01*
X163807038Y-86839054D01*
X163807034Y-86839048D01*
X163679255Y-86697135D01*
X163524752Y-86584882D01*
X163350284Y-86507204D01*
X163243106Y-86484422D01*
X163180633Y-86450694D01*
X163146312Y-86388544D01*
X163144082Y-86368257D01*
X163143994Y-86368267D01*
X163127836Y-86214535D01*
X163123342Y-86171772D01*
X163064327Y-85990144D01*
X162968840Y-85824756D01*
X162968838Y-85824754D01*
X162968834Y-85824748D01*
X162841055Y-85682835D01*
X162686552Y-85570582D01*
X162512088Y-85492906D01*
X162318828Y-85451827D01*
X162319413Y-85449072D01*
X162265203Y-85426738D01*
X162224601Y-85368497D01*
X162221933Y-85297551D01*
X162224245Y-85289543D01*
X162226124Y-85283761D01*
X162226127Y-85283756D01*
X162285142Y-85102128D01*
X162305104Y-84912200D01*
X162285142Y-84722272D01*
X162226127Y-84540644D01*
X162130640Y-84375256D01*
X162130638Y-84375254D01*
X162130634Y-84375248D01*
X162002855Y-84233335D01*
X161848352Y-84121082D01*
X161673888Y-84043406D01*
X161487087Y-84003700D01*
X161296113Y-84003700D01*
X161109311Y-84043406D01*
X160934847Y-84121082D01*
X160780344Y-84233335D01*
X160652565Y-84375248D01*
X160652558Y-84375258D01*
X160557076Y-84540638D01*
X160557073Y-84540645D01*
X160498057Y-84722272D01*
X160478096Y-84912200D01*
X137414000Y-84912200D01*
X137414000Y-82686644D01*
X166481763Y-82686644D01*
X166501724Y-82876571D01*
X166512612Y-82910079D01*
X166560740Y-83058200D01*
X166560743Y-83058205D01*
X166656225Y-83223585D01*
X166656232Y-83223595D01*
X166784011Y-83365508D01*
X166784014Y-83365510D01*
X166938515Y-83477762D01*
X167112979Y-83555438D01*
X167299780Y-83595144D01*
X167490754Y-83595144D01*
X167677555Y-83555438D01*
X167852019Y-83477762D01*
X168006520Y-83365510D01*
X168048634Y-83318738D01*
X168134301Y-83223595D01*
X168134302Y-83223593D01*
X168134307Y-83223588D01*
X168229794Y-83058200D01*
X168288809Y-82876572D01*
X168308771Y-82686644D01*
X168288809Y-82496716D01*
X168229794Y-82315088D01*
X168134307Y-82149700D01*
X168134305Y-82149698D01*
X168134301Y-82149692D01*
X168006522Y-82007779D01*
X167852019Y-81895526D01*
X167677555Y-81817850D01*
X167490754Y-81778144D01*
X167299780Y-81778144D01*
X167112978Y-81817850D01*
X166938514Y-81895526D01*
X166784011Y-82007779D01*
X166656232Y-82149692D01*
X166656225Y-82149702D01*
X166560743Y-82315082D01*
X166560740Y-82315089D01*
X166501724Y-82496716D01*
X166481763Y-82686644D01*
X137414000Y-82686644D01*
X137414000Y-78613000D01*
X165151696Y-78613000D01*
X165171657Y-78802927D01*
X165201726Y-78895470D01*
X165230673Y-78984556D01*
X165230676Y-78984561D01*
X165326158Y-79149941D01*
X165326165Y-79149951D01*
X165453944Y-79291864D01*
X165453947Y-79291866D01*
X165608448Y-79404118D01*
X165782912Y-79481794D01*
X165969713Y-79521500D01*
X166160687Y-79521500D01*
X166347488Y-79481794D01*
X166521952Y-79404118D01*
X166676453Y-79291866D01*
X166804240Y-79149944D01*
X166899727Y-78984556D01*
X166958742Y-78802928D01*
X166978704Y-78613000D01*
X166958742Y-78423072D01*
X166899727Y-78241444D01*
X166804240Y-78076056D01*
X166804238Y-78076054D01*
X166804234Y-78076048D01*
X166676455Y-77934135D01*
X166521952Y-77821882D01*
X166347488Y-77744206D01*
X166160687Y-77704500D01*
X165969713Y-77704500D01*
X165782911Y-77744206D01*
X165608447Y-77821882D01*
X165453944Y-77934135D01*
X165326165Y-78076048D01*
X165326158Y-78076058D01*
X165230676Y-78241438D01*
X165230673Y-78241445D01*
X165171657Y-78423072D01*
X165151696Y-78613000D01*
X137414000Y-78613000D01*
X137414000Y-77597000D01*
X158547696Y-77597000D01*
X158567657Y-77786927D01*
X158579015Y-77821882D01*
X158626673Y-77968556D01*
X158626676Y-77968561D01*
X158722158Y-78133941D01*
X158722165Y-78133951D01*
X158849944Y-78275864D01*
X158849947Y-78275866D01*
X159004448Y-78388118D01*
X159178912Y-78465794D01*
X159365713Y-78505500D01*
X159556687Y-78505500D01*
X159743488Y-78465794D01*
X159917952Y-78388118D01*
X160072453Y-78275866D01*
X160200240Y-78133944D01*
X160295727Y-77968556D01*
X160354742Y-77786928D01*
X160374704Y-77597000D01*
X161316296Y-77597000D01*
X161336257Y-77786927D01*
X161347615Y-77821882D01*
X161395273Y-77968556D01*
X161395276Y-77968561D01*
X161490758Y-78133941D01*
X161490765Y-78133951D01*
X161618544Y-78275864D01*
X161618547Y-78275866D01*
X161773048Y-78388118D01*
X161947512Y-78465794D01*
X162134313Y-78505500D01*
X162325287Y-78505500D01*
X162512088Y-78465794D01*
X162686552Y-78388118D01*
X162841053Y-78275866D01*
X162968840Y-78133944D01*
X163064327Y-77968556D01*
X163123342Y-77786928D01*
X163143304Y-77597000D01*
X163123342Y-77407072D01*
X163085048Y-77289218D01*
X163083021Y-77218255D01*
X163119683Y-77157456D01*
X163130805Y-77148361D01*
X163222053Y-77082066D01*
X163349840Y-76940144D01*
X163445327Y-76774756D01*
X163504342Y-76593128D01*
X163524304Y-76403200D01*
X163504342Y-76213272D01*
X163445327Y-76031644D01*
X163349840Y-75866256D01*
X163349838Y-75866254D01*
X163349834Y-75866248D01*
X163222055Y-75724335D01*
X163067552Y-75612082D01*
X162893088Y-75534406D01*
X162706287Y-75494700D01*
X162515313Y-75494700D01*
X162328511Y-75534406D01*
X162154047Y-75612082D01*
X161999544Y-75724335D01*
X161871765Y-75866248D01*
X161871758Y-75866258D01*
X161776276Y-76031638D01*
X161776273Y-76031645D01*
X161717257Y-76213272D01*
X161697296Y-76403200D01*
X161717257Y-76593127D01*
X161746017Y-76681639D01*
X161748246Y-76688500D01*
X161755550Y-76710977D01*
X161757578Y-76781945D01*
X161720916Y-76842743D01*
X161709778Y-76851850D01*
X161618544Y-76918135D01*
X161490765Y-77060048D01*
X161490758Y-77060058D01*
X161395276Y-77225438D01*
X161395273Y-77225445D01*
X161336257Y-77407072D01*
X161316296Y-77597000D01*
X160374704Y-77597000D01*
X160354742Y-77407072D01*
X160295727Y-77225444D01*
X160200240Y-77060056D01*
X160200238Y-77060054D01*
X160200234Y-77060048D01*
X160072455Y-76918135D01*
X159917952Y-76805882D01*
X159743488Y-76728206D01*
X159556687Y-76688500D01*
X159365713Y-76688500D01*
X159178911Y-76728206D01*
X159004447Y-76805882D01*
X158849944Y-76918135D01*
X158722165Y-77060048D01*
X158722158Y-77060058D01*
X158626676Y-77225438D01*
X158626673Y-77225445D01*
X158567657Y-77407072D01*
X158547696Y-77597000D01*
X137414000Y-77597000D01*
X137414000Y-76199999D01*
X139548496Y-76199999D01*
X139568457Y-76389927D01*
X139572770Y-76403200D01*
X139627473Y-76571556D01*
X139627476Y-76571561D01*
X139722958Y-76736941D01*
X139722965Y-76736951D01*
X139850744Y-76878864D01*
X139850747Y-76878866D01*
X140005248Y-76991118D01*
X140179712Y-77068794D01*
X140366513Y-77108500D01*
X140557487Y-77108500D01*
X140744288Y-77068794D01*
X140918752Y-76991118D01*
X141073253Y-76878866D01*
X141073255Y-76878864D01*
X141201034Y-76736951D01*
X141201035Y-76736949D01*
X141201040Y-76736944D01*
X141296527Y-76571556D01*
X141355542Y-76389928D01*
X141375504Y-76200000D01*
X141355542Y-76010072D01*
X141296527Y-75828444D01*
X141201040Y-75663056D01*
X141201038Y-75663054D01*
X141201034Y-75663048D01*
X141073255Y-75521135D01*
X140918752Y-75408882D01*
X140744288Y-75331206D01*
X140557487Y-75291500D01*
X140366513Y-75291500D01*
X140179711Y-75331206D01*
X140005247Y-75408882D01*
X139850744Y-75521135D01*
X139722965Y-75663048D01*
X139722958Y-75663058D01*
X139627476Y-75828438D01*
X139627473Y-75828445D01*
X139568457Y-76010072D01*
X139548496Y-76199999D01*
X137414000Y-76199999D01*
X137414000Y-74244199D01*
X156388696Y-74244199D01*
X156408657Y-74434127D01*
X156438726Y-74526670D01*
X156467673Y-74615756D01*
X156467676Y-74615761D01*
X156563158Y-74781141D01*
X156563165Y-74781151D01*
X156690944Y-74923064D01*
X156690947Y-74923066D01*
X156845448Y-75035318D01*
X157019912Y-75112994D01*
X157206713Y-75152700D01*
X157397687Y-75152700D01*
X157584488Y-75112994D01*
X157758952Y-75035318D01*
X157913453Y-74923066D01*
X158041240Y-74781144D01*
X158136727Y-74615756D01*
X158195742Y-74434128D01*
X158215704Y-74244200D01*
X158195742Y-74054272D01*
X158136727Y-73872644D01*
X158041240Y-73707256D01*
X158041238Y-73707254D01*
X158041234Y-73707248D01*
X157913455Y-73565335D01*
X157758952Y-73453082D01*
X157584488Y-73375406D01*
X157397687Y-73335700D01*
X157206713Y-73335700D01*
X157019911Y-73375406D01*
X156845447Y-73453082D01*
X156690944Y-73565335D01*
X156563165Y-73707248D01*
X156563158Y-73707258D01*
X156467676Y-73872638D01*
X156467673Y-73872645D01*
X156408657Y-74054272D01*
X156388696Y-74244199D01*
X137414000Y-74244199D01*
X137414000Y-73961343D01*
X137434002Y-73893222D01*
X137445175Y-73878371D01*
X139180626Y-71894999D01*
X140376341Y-71894999D01*
X140396937Y-72130411D01*
X140458096Y-72358661D01*
X140458098Y-72358665D01*
X140557966Y-72572832D01*
X140693498Y-72766392D01*
X140693502Y-72766397D01*
X140693505Y-72766401D01*
X140860599Y-72933495D01*
X140860603Y-72933498D01*
X140860607Y-72933501D01*
X141054167Y-73069033D01*
X141054166Y-73069033D01*
X141130304Y-73104537D01*
X141268337Y-73168903D01*
X141496592Y-73230063D01*
X141673034Y-73245500D01*
X141673035Y-73245500D01*
X141790965Y-73245500D01*
X141790966Y-73245500D01*
X141967408Y-73230063D01*
X142195663Y-73168903D01*
X142409829Y-73069035D01*
X142603401Y-72933495D01*
X142770495Y-72766401D01*
X142906035Y-72572830D01*
X143005903Y-72358663D01*
X143067063Y-72130408D01*
X143087659Y-71895000D01*
X158156341Y-71895000D01*
X158176937Y-72130411D01*
X158238096Y-72358661D01*
X158238098Y-72358665D01*
X158337966Y-72572832D01*
X158473498Y-72766392D01*
X158473502Y-72766397D01*
X158473505Y-72766401D01*
X158640599Y-72933495D01*
X158640603Y-72933498D01*
X158640607Y-72933501D01*
X158834167Y-73069033D01*
X158834166Y-73069033D01*
X158910304Y-73104537D01*
X159048337Y-73168903D01*
X159276592Y-73230063D01*
X159453034Y-73245500D01*
X159453035Y-73245500D01*
X159570965Y-73245500D01*
X159570966Y-73245500D01*
X159747408Y-73230063D01*
X159975663Y-73168903D01*
X160189829Y-73069035D01*
X160383401Y-72933495D01*
X160550495Y-72766401D01*
X160686035Y-72572830D01*
X160785903Y-72358663D01*
X160847063Y-72130408D01*
X160867659Y-71895000D01*
X160847063Y-71659592D01*
X160785903Y-71431337D01*
X160686035Y-71217171D01*
X160686034Y-71217169D01*
X160686033Y-71217167D01*
X160550501Y-71023607D01*
X160550497Y-71023602D01*
X160550495Y-71023599D01*
X160383401Y-70856505D01*
X160383397Y-70856502D01*
X160383392Y-70856498D01*
X160189832Y-70720966D01*
X160189833Y-70720966D01*
X159975665Y-70621098D01*
X159975661Y-70621096D01*
X159747411Y-70559937D01*
X159615076Y-70548359D01*
X159570966Y-70544500D01*
X159453034Y-70544500D01*
X159417745Y-70547587D01*
X159276588Y-70559937D01*
X159048338Y-70621096D01*
X159048334Y-70621098D01*
X158834167Y-70720966D01*
X158640607Y-70856498D01*
X158640596Y-70856507D01*
X158473507Y-71023596D01*
X158473502Y-71023602D01*
X158337965Y-71217169D01*
X158238098Y-71431334D01*
X158238096Y-71431338D01*
X158176937Y-71659588D01*
X158156341Y-71895000D01*
X143087659Y-71895000D01*
X143067063Y-71659592D01*
X143005903Y-71431337D01*
X142906035Y-71217171D01*
X142906034Y-71217169D01*
X142906033Y-71217167D01*
X142770501Y-71023607D01*
X142770497Y-71023602D01*
X142770495Y-71023599D01*
X142603401Y-70856505D01*
X142603397Y-70856502D01*
X142603392Y-70856498D01*
X142409832Y-70720966D01*
X142409833Y-70720966D01*
X142195665Y-70621098D01*
X142195661Y-70621096D01*
X141967411Y-70559937D01*
X141835076Y-70548359D01*
X141790966Y-70544500D01*
X141673034Y-70544500D01*
X141637745Y-70547587D01*
X141496588Y-70559937D01*
X141268338Y-70621096D01*
X141268334Y-70621098D01*
X141054167Y-70720966D01*
X140860607Y-70856498D01*
X140860596Y-70856507D01*
X140693507Y-71023596D01*
X140693502Y-71023602D01*
X140557965Y-71217169D01*
X140458098Y-71431334D01*
X140458096Y-71431338D01*
X140396937Y-71659588D01*
X140376341Y-71894999D01*
X139180626Y-71894999D01*
X140932351Y-69893027D01*
X140992261Y-69854934D01*
X141027175Y-69850000D01*
X148635904Y-69850000D01*
X148704025Y-69870002D01*
G37*
%TD.AperFunction*%
%TD*%
M02*
