%TF.GenerationSoftware,KiCad,Pcbnew,7.0.6*%
%TF.CreationDate,2024-04-07T09:56:08-04:00*%
%TF.ProjectId,Safe-To-Mate-O-Matic-v4,53616665-2d54-46f2-9d4d-6174652d4f2d,rev?*%
%TF.SameCoordinates,Original*%
%TF.FileFunction,Soldermask,Top*%
%TF.FilePolarity,Negative*%
%FSLAX46Y46*%
G04 Gerber Fmt 4.6, Leading zero omitted, Abs format (unit mm)*
G04 Created by KiCad (PCBNEW 7.0.6) date 2024-04-07 09:56:08*
%MOMM*%
%LPD*%
G01*
G04 APERTURE LIST*
G04 Aperture macros list*
%AMRoundRect*
0 Rectangle with rounded corners*
0 $1 Rounding radius*
0 $2 $3 $4 $5 $6 $7 $8 $9 X,Y pos of 4 corners*
0 Add a 4 corners polygon primitive as box body*
4,1,4,$2,$3,$4,$5,$6,$7,$8,$9,$2,$3,0*
0 Add four circle primitives for the rounded corners*
1,1,$1+$1,$2,$3*
1,1,$1+$1,$4,$5*
1,1,$1+$1,$6,$7*
1,1,$1+$1,$8,$9*
0 Add four rect primitives between the rounded corners*
20,1,$1+$1,$2,$3,$4,$5,0*
20,1,$1+$1,$4,$5,$6,$7,0*
20,1,$1+$1,$6,$7,$8,$9,0*
20,1,$1+$1,$8,$9,$2,$3,0*%
%AMFreePoly0*
4,1,21,1.372500,0.787500,0.862500,0.787500,0.862500,0.532500,1.372500,0.532500,1.372500,0.127500,0.862500,0.127500,0.862500,-0.127500,1.372500,-0.127500,1.372500,-0.532500,0.862500,-0.532500,0.862500,-0.787500,1.372500,-0.787500,1.372500,-1.195000,0.612500,-1.195000,0.612500,-1.117500,-0.862500,-1.117500,-0.862500,1.117500,0.612500,1.117500,0.612500,1.195000,1.372500,1.195000,
1.372500,0.787500,1.372500,0.787500,$1*%
G04 Aperture macros list end*
%ADD10C,2.200000*%
%ADD11R,1.800000X1.800000*%
%ADD12C,1.800000*%
%ADD13C,1.500000*%
%ADD14RoundRect,0.135000X0.135000X0.185000X-0.135000X0.185000X-0.135000X-0.185000X0.135000X-0.185000X0*%
%ADD15R,0.990000X0.405000*%
%ADD16FreePoly0,0.000000*%
%ADD17RoundRect,0.140000X-0.140000X-0.170000X0.140000X-0.170000X0.140000X0.170000X-0.140000X0.170000X0*%
%ADD18FreePoly0,180.000000*%
%ADD19RoundRect,0.135000X-0.135000X-0.185000X0.135000X-0.185000X0.135000X0.185000X-0.135000X0.185000X0*%
%ADD20RoundRect,0.140000X0.140000X0.170000X-0.140000X0.170000X-0.140000X-0.170000X0.140000X-0.170000X0*%
%ADD21R,5.080000X1.270000*%
%ADD22C,17.800000*%
%ADD23RoundRect,0.150000X0.587500X0.150000X-0.587500X0.150000X-0.587500X-0.150000X0.587500X-0.150000X0*%
%ADD24C,0.990600*%
G04 APERTURE END LIST*
D10*
%TO.C,H4*%
X159512000Y-94755000D03*
%TD*%
D11*
%TO.C,D3*%
X172720000Y-84582000D03*
D12*
X172720000Y-82042000D03*
%TD*%
D13*
%TO.C,TP4*%
X163144200Y-89281000D03*
%TD*%
D14*
%TO.C,R3*%
X166549800Y-83058000D03*
X165529800Y-83058000D03*
%TD*%
D10*
%TO.C,H3*%
X159512000Y-71895000D03*
%TD*%
D15*
%TO.C,Q1*%
X162268000Y-79502600D03*
X162268000Y-80162600D03*
X162268000Y-80822600D03*
X162268000Y-81482600D03*
D16*
X164260500Y-80492600D03*
%TD*%
D10*
%TO.C,H2*%
X141732000Y-71895000D03*
%TD*%
D17*
%TO.C,C7*%
X162080000Y-82880200D03*
X163040000Y-82880200D03*
%TD*%
D15*
%TO.C,Q3*%
X169837000Y-81482600D03*
X169837000Y-80822600D03*
X169837000Y-80162600D03*
X169837000Y-79502600D03*
D18*
X167844500Y-80492600D03*
%TD*%
D19*
%TO.C,R14*%
X162075400Y-84048600D03*
X163095400Y-84048600D03*
%TD*%
D20*
%TO.C,C3*%
X166519800Y-84277200D03*
X165559800Y-84277200D03*
%TD*%
D13*
%TO.C,TP6*%
X162585400Y-74523600D03*
%TD*%
D19*
%TO.C,R1*%
X165555200Y-85623400D03*
X166575200Y-85623400D03*
%TD*%
D21*
%TO.C,BT1*%
X151003000Y-72352400D03*
X151003000Y-94322400D03*
D22*
X151003000Y-83337400D03*
%TD*%
D10*
%TO.C,H1*%
X141732000Y-94755000D03*
%TD*%
D23*
%TO.C,Q2*%
X170076100Y-85303400D03*
X170076100Y-83403400D03*
X168201100Y-84353400D03*
%TD*%
D19*
%TO.C,R17*%
X144727200Y-94310200D03*
X145747200Y-94310200D03*
%TD*%
D14*
%TO.C,R15*%
X161241200Y-75869800D03*
X160221200Y-75869800D03*
%TD*%
D13*
%TO.C,TP1*%
X173228000Y-77216000D03*
%TD*%
D24*
%TO.C,J2*%
X161036000Y-89255600D03*
X166116000Y-88239600D03*
X166116000Y-90271600D03*
%TD*%
M02*
