M48
; DRILL file {KiCad 7.0.6} date Sun Aug 20 20:53:25 2023
; FORMAT={-:-/ absolute / inch / decimal}
; #@! TF.CreationDate,2023-08-20T20:53:25-04:00
; #@! TF.GenerationSoftware,Kicad,Pcbnew,7.0.6
; #@! TF.FileFunction,Plated,1,2,PTH
FMAT,2
INCH
; #@! TA.AperFunction,Plated,PTH,ViaDrill
T1C0.0157
; #@! TA.AperFunction,Plated,PTH,ComponentDrill
T2C0.0354
; #@! TA.AperFunction,Plated,PTH,ComponentDrill
T3C0.0362
; #@! TA.AperFunction,Plated,PTH,ComponentDrill
T4C0.0394
; #@! TA.AperFunction,Plated,PTH,ComponentDrill
T5C0.0917
%
G90
G05
T1
X5.05Y-3.19
X5.05Y-3.24
X5.05Y-3.31
X5.06Y-3.38
X5.22Y-3.09
X5.24Y-3.34
X5.3525Y-3.3725
X5.62Y-3.53
X5.67Y-3.0645
X5.7488Y-2.9995
X5.75Y-3.69
X5.76Y-3.57
X5.78Y-2.97
X5.7848Y-3.0152
X5.83Y-3.72
X5.92Y-3.07
X5.96Y-3.07
X5.97Y-2.88
X6.06Y-3.18
X6.09Y-3.72
X6.0945Y-3.2045
X6.12Y-2.997
X6.12Y-3.24
X6.16Y-3.05
X6.2614Y-3.3886
X6.6Y-3.01
X6.62Y-3.55
X6.65Y-3.34
X6.69Y-3.29
T2
X6.8Y-3.23
X6.8Y-3.33
T3
X5.4602Y-3.2358
X5.4602Y-3.3342
X5.539Y-3.2358
X5.539Y-3.3342
T4
X6.41Y-3.1304
X6.41Y-3.4296
T5
X5.3535Y-3.048
X5.3535Y-3.522
T0
M30
