%TF.GenerationSoftware,KiCad,Pcbnew,7.0.6*%
%TF.CreationDate,2023-08-20T20:53:31-04:00*%
%TF.ProjectId,Safe-To-Mate-O-Matic-v3,53616665-2d54-46f2-9d4d-6174652d4f2d,rev?*%
%TF.SameCoordinates,Original*%
%TF.FileFunction,Copper,L2,Bot*%
%TF.FilePolarity,Positive*%
%FSLAX46Y46*%
G04 Gerber Fmt 4.6, Leading zero omitted, Abs format (unit mm)*
G04 Created by KiCad (PCBNEW 7.0.6) date 2023-08-20 20:53:31*
%MOMM*%
%LPD*%
G01*
G04 APERTURE LIST*
G04 Aperture macros list*
%AMRoundRect*
0 Rectangle with rounded corners*
0 $1 Rounding radius*
0 $2 $3 $4 $5 $6 $7 $8 $9 X,Y pos of 4 corners*
0 Add a 4 corners polygon primitive as box body*
4,1,4,$2,$3,$4,$5,$6,$7,$8,$9,$2,$3,0*
0 Add four circle primitives for the rounded corners*
1,1,$1+$1,$2,$3*
1,1,$1+$1,$4,$5*
1,1,$1+$1,$6,$7*
1,1,$1+$1,$8,$9*
0 Add four rect primitives between the rounded corners*
20,1,$1+$1,$2,$3,$4,$5,0*
20,1,$1+$1,$4,$5,$6,$7,0*
20,1,$1+$1,$6,$7,$8,$9,0*
20,1,$1+$1,$8,$9,$2,$3,0*%
%AMRotRect*
0 Rectangle, with rotation*
0 The origin of the aperture is its center*
0 $1 length*
0 $2 width*
0 $3 Rotation angle, in degrees counterclockwise*
0 Add horizontal line*
21,1,$1,$2,0,0,$3*%
G04 Aperture macros list end*
%TA.AperFunction,ComponentPad*%
%ADD10R,1.800000X1.800000*%
%TD*%
%TA.AperFunction,ComponentPad*%
%ADD11C,1.800000*%
%TD*%
%TA.AperFunction,ComponentPad*%
%ADD12R,2.000000X2.000000*%
%TD*%
%TA.AperFunction,ComponentPad*%
%ADD13C,2.000000*%
%TD*%
%TA.AperFunction,ComponentPad*%
%ADD14R,1.700000X1.700000*%
%TD*%
%TA.AperFunction,ComponentPad*%
%ADD15C,1.700000*%
%TD*%
%TA.AperFunction,ComponentPad*%
%ADD16C,3.500000*%
%TD*%
%TA.AperFunction,SMDPad,CuDef*%
%ADD17R,3.200000X0.400000*%
%TD*%
%TA.AperFunction,SMDPad,CuDef*%
%ADD18RoundRect,0.237500X-0.250000X-0.237500X0.250000X-0.237500X0.250000X0.237500X-0.250000X0.237500X0*%
%TD*%
%TA.AperFunction,SMDPad,CuDef*%
%ADD19RoundRect,0.237500X-0.300000X-0.237500X0.300000X-0.237500X0.300000X0.237500X-0.300000X0.237500X0*%
%TD*%
%TA.AperFunction,SMDPad,CuDef*%
%ADD20RoundRect,0.150000X0.700000X-0.150000X0.700000X0.150000X-0.700000X0.150000X-0.700000X-0.150000X0*%
%TD*%
%TA.AperFunction,SMDPad,CuDef*%
%ADD21RoundRect,0.250000X1.100000X-0.250000X1.100000X0.250000X-1.100000X0.250000X-1.100000X-0.250000X0*%
%TD*%
%TA.AperFunction,SMDPad,CuDef*%
%ADD22RoundRect,0.150000X0.587500X0.150000X-0.587500X0.150000X-0.587500X-0.150000X0.587500X-0.150000X0*%
%TD*%
%TA.AperFunction,SMDPad,CuDef*%
%ADD23RoundRect,0.237500X0.250000X0.237500X-0.250000X0.237500X-0.250000X-0.237500X0.250000X-0.237500X0*%
%TD*%
%TA.AperFunction,SMDPad,CuDef*%
%ADD24R,4.699000X3.429000*%
%TD*%
%TA.AperFunction,SMDPad,CuDef*%
%ADD25RoundRect,0.237500X0.300000X0.237500X-0.300000X0.237500X-0.300000X-0.237500X0.300000X-0.237500X0*%
%TD*%
%TA.AperFunction,SMDPad,CuDef*%
%ADD26RotRect,1.500000X0.550000X315.000000*%
%TD*%
%TA.AperFunction,SMDPad,CuDef*%
%ADD27RotRect,1.500000X0.550000X225.000000*%
%TD*%
%TA.AperFunction,SMDPad,CuDef*%
%ADD28C,1.500000*%
%TD*%
%TA.AperFunction,SMDPad,CuDef*%
%ADD29RoundRect,0.237500X0.287500X0.237500X-0.287500X0.237500X-0.287500X-0.237500X0.287500X-0.237500X0*%
%TD*%
%TA.AperFunction,SMDPad,CuDef*%
%ADD30RoundRect,0.150000X0.512500X0.150000X-0.512500X0.150000X-0.512500X-0.150000X0.512500X-0.150000X0*%
%TD*%
%TA.AperFunction,SMDPad,CuDef*%
%ADD31RoundRect,0.150000X-0.587500X-0.150000X0.587500X-0.150000X0.587500X0.150000X-0.587500X0.150000X0*%
%TD*%
%TA.AperFunction,SMDPad,CuDef*%
%ADD32R,0.900000X1.000000*%
%TD*%
%TA.AperFunction,ViaPad*%
%ADD33C,0.800000*%
%TD*%
%TA.AperFunction,Conductor*%
%ADD34C,0.250000*%
%TD*%
G04 APERTURE END LIST*
D10*
%TO.P,D1,1,K*%
%TO.N,Net-(D1-K)*%
X172720000Y-84582000D03*
D11*
%TO.P,D1,2,A*%
%TO.N,Net-(D1-A)*%
X172720000Y-82042000D03*
%TD*%
D12*
%TO.P,BZ1,1,-*%
%TO.N,Net-(BZ1--)*%
X162814000Y-87112000D03*
D13*
%TO.P,BZ1,2,+*%
%TO.N,GND*%
X162814000Y-79512000D03*
%TD*%
D14*
%TO.P,J1,1,VBUS*%
%TO.N,+5V*%
X140689500Y-84689000D03*
D15*
%TO.P,J1,2,D-*%
%TO.N,Net-(J1-D-)*%
X140689500Y-82189000D03*
%TO.P,J1,3,D+*%
%TO.N,Net-(J1-D+)*%
X138689500Y-82189000D03*
%TO.P,J1,4,GND*%
%TO.N,GND*%
X138689500Y-84689000D03*
D16*
%TO.P,J1,5,Shield*%
X135979500Y-89459000D03*
X135979500Y-77419000D03*
%TD*%
D17*
%TO.P,Y2,1,1*%
%TO.N,Net-(U1-XTAL2)*%
X159131000Y-76016000D03*
%TO.P,Y2,2,2*%
%TO.N,GND*%
X159131000Y-77216000D03*
%TO.P,Y2,3,3*%
%TO.N,Net-(U1-XTAL1)*%
X159131000Y-78416000D03*
%TD*%
D18*
%TO.P,R7,1*%
%TO.N,+5V*%
X168863000Y-82042000D03*
%TO.P,R7,2*%
%TO.N,Net-(D1-K)*%
X170688000Y-82042000D03*
%TD*%
D19*
%TO.P,C4,1*%
%TO.N,+5V*%
X153823500Y-74422000D03*
%TO.P,C4,2*%
%TO.N,GND*%
X155548500Y-74422000D03*
%TD*%
D20*
%TO.P,J2,1,Pin_1*%
%TO.N,+5V*%
X130302000Y-88499000D03*
%TO.P,J2,2,Pin_2*%
%TO.N,/INT0*%
X130302000Y-87249000D03*
%TO.P,J2,3,Pin_3*%
%TO.N,GND*%
X130302000Y-85999000D03*
%TO.P,J2,4,Pin_4*%
%TO.N,/INT1*%
X130302000Y-84749000D03*
%TO.P,J2,5,Pin_5*%
%TO.N,GND*%
X130302000Y-83499000D03*
%TO.P,J2,6,Pin_6*%
%TO.N,/INT3*%
X130302000Y-82249000D03*
%TO.P,J2,7,Pin_7*%
%TO.N,GND*%
X130302000Y-80999000D03*
%TO.P,J2,8,Pin_8*%
%TO.N,/INT6*%
X130302000Y-79749000D03*
%TO.P,J2,9,Pin_9*%
%TO.N,GND*%
X130302000Y-78499000D03*
D21*
%TO.P,J2,MP*%
%TO.N,N/C*%
X127102000Y-90349000D03*
X127102000Y-76649000D03*
%TD*%
D22*
%TO.P,Q2,1,B*%
%TO.N,Net-(Q2-B)*%
X166878000Y-82296000D03*
%TO.P,Q2,2,E*%
%TO.N,GND*%
X166878000Y-84196000D03*
%TO.P,Q2,3,C*%
%TO.N,/RX*%
X165003000Y-83246000D03*
%TD*%
D23*
%TO.P,R4,1*%
%TO.N,+5V*%
X157630500Y-92456000D03*
%TO.P,R4,2*%
%TO.N,Net-(U1-~{HWB}{slash}PE2)*%
X155805500Y-92456000D03*
%TD*%
D18*
%TO.P,R3,1*%
%TO.N,Net-(J1-D+)*%
X140819500Y-77343000D03*
%TO.P,R3,2*%
%TO.N,Net-(U1-D+)*%
X142644500Y-77343000D03*
%TD*%
D19*
%TO.P,C7,1*%
%TO.N,+5V*%
X158295000Y-87376000D03*
%TO.P,C7,2*%
%TO.N,GND*%
X160020000Y-87376000D03*
%TD*%
D18*
%TO.P,R11,1*%
%TO.N,Net-(Q2-B)*%
X165457500Y-80264000D03*
%TO.P,R11,2*%
%TO.N,Net-(Q1-C)*%
X167282500Y-80264000D03*
%TD*%
D23*
%TO.P,R10,1*%
%TO.N,Net-(D1-K)*%
X171600500Y-88392000D03*
%TO.P,R10,2*%
%TO.N,Net-(D1-A)*%
X169775500Y-88392000D03*
%TD*%
D18*
%TO.P,R6,1*%
%TO.N,+5V*%
X165457500Y-77978000D03*
%TO.P,R6,2*%
%TO.N,Net-(Q1-C)*%
X167282500Y-77978000D03*
%TD*%
D24*
%TO.P,TP1,1,1*%
%TO.N,GND*%
X151384000Y-94488000D03*
%TD*%
D23*
%TO.P,R1,1*%
%TO.N,+5V*%
X155598500Y-72136000D03*
%TO.P,R1,2*%
%TO.N,RESET*%
X153773500Y-72136000D03*
%TD*%
D25*
%TO.P,C1,1*%
%TO.N,Net-(U1-AREF)*%
X143356500Y-91186000D03*
%TO.P,C1,2*%
%TO.N,GND*%
X141631500Y-91186000D03*
%TD*%
D26*
%TO.P,U1,1,PE6*%
%TO.N,/INT6*%
X143763064Y-82109918D03*
%TO.P,U1,2,UVCC*%
%TO.N,+5V*%
X144328750Y-81544233D03*
%TO.P,U1,3,D-*%
%TO.N,Net-(U1-D-)*%
X144894435Y-80978548D03*
%TO.P,U1,4,D+*%
%TO.N,Net-(U1-D+)*%
X145460120Y-80412862D03*
%TO.P,U1,5,UGND*%
%TO.N,GND*%
X146025806Y-79847177D03*
%TO.P,U1,6,UCAP*%
%TO.N,Net-(U1-UCAP)*%
X146591491Y-79281491D03*
%TO.P,U1,7,VBUS*%
%TO.N,+5V*%
X147157177Y-78715806D03*
%TO.P,U1,8,PB0*%
%TO.N,unconnected-(U1-PB0-Pad8)*%
X147722862Y-78150120D03*
%TO.P,U1,9,PB1*%
%TO.N,SCK*%
X148288548Y-77584435D03*
%TO.P,U1,10,PB2*%
%TO.N,MOSI*%
X148854233Y-77018750D03*
%TO.P,U1,11,PB3*%
%TO.N,MISO*%
X149419918Y-76453064D03*
D27*
%TO.P,U1,12,PB7*%
%TO.N,unconnected-(U1-PB7-Pad12)*%
X151824082Y-76453064D03*
%TO.P,U1,13,~{RESET}*%
%TO.N,RESET*%
X152389767Y-77018750D03*
%TO.P,U1,14,VCC*%
%TO.N,+5V*%
X152955452Y-77584435D03*
%TO.P,U1,15,GND*%
%TO.N,GND*%
X153521138Y-78150120D03*
%TO.P,U1,16,XTAL2*%
%TO.N,Net-(U1-XTAL2)*%
X154086823Y-78715806D03*
%TO.P,U1,17,XTAL1*%
%TO.N,Net-(U1-XTAL1)*%
X154652509Y-79281491D03*
%TO.P,U1,18,PD0*%
%TO.N,/INT0*%
X155218194Y-79847177D03*
%TO.P,U1,19,PD1*%
%TO.N,/INT1*%
X155783880Y-80412862D03*
%TO.P,U1,20,PD2*%
%TO.N,/RX*%
X156349565Y-80978548D03*
%TO.P,U1,21,PD3*%
%TO.N,/INT3*%
X156915250Y-81544233D03*
%TO.P,U1,22,PD5*%
%TO.N,unconnected-(U1-PD5-Pad22)*%
X157480936Y-82109918D03*
D26*
%TO.P,U1,23,GND*%
%TO.N,GND*%
X157480936Y-84514082D03*
%TO.P,U1,24,AVCC*%
%TO.N,+5V*%
X156915250Y-85079767D03*
%TO.P,U1,25,PD4*%
%TO.N,unconnected-(U1-PD4-Pad25)*%
X156349565Y-85645452D03*
%TO.P,U1,26,PD6*%
%TO.N,unconnected-(U1-PD6-Pad26)*%
X155783880Y-86211138D03*
%TO.P,U1,27,PD7*%
%TO.N,unconnected-(U1-PD7-Pad27)*%
X155218194Y-86776823D03*
%TO.P,U1,28,PB4*%
%TO.N,unconnected-(U1-PB4-Pad28)*%
X154652509Y-87342509D03*
%TO.P,U1,29,PB5*%
%TO.N,Net-(U1-PB5)*%
X154086823Y-87908194D03*
%TO.P,U1,30,PB6*%
%TO.N,unconnected-(U1-PB6-Pad30)*%
X153521138Y-88473880D03*
%TO.P,U1,31,PC6*%
%TO.N,unconnected-(U1-PC6-Pad31)*%
X152955452Y-89039565D03*
%TO.P,U1,32,PC7*%
%TO.N,Net-(U1-PC7)*%
X152389767Y-89605250D03*
%TO.P,U1,33,~{HWB}/PE2*%
%TO.N,Net-(U1-~{HWB}{slash}PE2)*%
X151824082Y-90170936D03*
D27*
%TO.P,U1,34,VCC*%
%TO.N,+5V*%
X149419918Y-90170936D03*
%TO.P,U1,35,GND*%
%TO.N,GND*%
X148854233Y-89605250D03*
%TO.P,U1,36,PF7*%
%TO.N,unconnected-(U1-PF7-Pad36)*%
X148288548Y-89039565D03*
%TO.P,U1,37,PF6*%
%TO.N,unconnected-(U1-PF6-Pad37)*%
X147722862Y-88473880D03*
%TO.P,U1,38,PF5*%
%TO.N,unconnected-(U1-PF5-Pad38)*%
X147157177Y-87908194D03*
%TO.P,U1,39,PF4*%
%TO.N,unconnected-(U1-PF4-Pad39)*%
X146591491Y-87342509D03*
%TO.P,U1,40,PF1*%
%TO.N,unconnected-(U1-PF1-Pad40)*%
X146025806Y-86776823D03*
%TO.P,U1,41,PF0*%
%TO.N,unconnected-(U1-PF0-Pad41)*%
X145460120Y-86211138D03*
%TO.P,U1,42,AREF*%
%TO.N,Net-(U1-AREF)*%
X144894435Y-85645452D03*
%TO.P,U1,43,GND*%
%TO.N,GND*%
X144328750Y-85079767D03*
%TO.P,U1,44,AVCC*%
%TO.N,+5V*%
X143763064Y-84514082D03*
%TD*%
D18*
%TO.P,R9,1*%
%TO.N,+5V*%
X161139500Y-83312000D03*
%TO.P,R9,2*%
%TO.N,/RX*%
X162964500Y-83312000D03*
%TD*%
D28*
%TO.P,TP2,1,1*%
%TO.N,+5V*%
X139446000Y-90170000D03*
%TD*%
D18*
%TO.P,R2,1*%
%TO.N,Net-(J1-D-)*%
X140819500Y-79121000D03*
%TO.P,R2,2*%
%TO.N,Net-(U1-D-)*%
X142644500Y-79121000D03*
%TD*%
D29*
%TO.P,D2,1,K*%
%TO.N,GND*%
X167753000Y-86106000D03*
%TO.P,D2,2,A*%
%TO.N,Net-(D2-A)*%
X166003000Y-86106000D03*
%TD*%
D19*
%TO.P,C3,1*%
%TO.N,Net-(U1-UCAP)*%
X138837500Y-75438000D03*
%TO.P,C3,2*%
%TO.N,GND*%
X140562500Y-75438000D03*
%TD*%
D25*
%TO.P,C5,1*%
%TO.N,+5V*%
X147674500Y-92202000D03*
%TO.P,C5,2*%
%TO.N,GND*%
X145949500Y-92202000D03*
%TD*%
D30*
%TO.P,D3,1,TVS1*%
%TO.N,/INT0*%
X135382000Y-81219000D03*
%TO.P,D3,2,COM*%
%TO.N,GND*%
X135382000Y-82169000D03*
%TO.P,D3,3,TVS2*%
%TO.N,/INT1*%
X135382000Y-83119000D03*
%TO.P,D3,4,TVS3*%
%TO.N,/INT3*%
X133107000Y-83119000D03*
%TO.P,D3,5,COM*%
%TO.N,GND*%
X133107000Y-82169000D03*
%TO.P,D3,6,TVS4*%
%TO.N,/INT6*%
X133107000Y-81219000D03*
%TD*%
D28*
%TO.P,TP7,1,1*%
%TO.N,/RX*%
X159766000Y-80518000D03*
%TD*%
D23*
%TO.P,R5,1*%
%TO.N,Net-(D2-A)*%
X167790500Y-88646000D03*
%TO.P,R5,2*%
%TO.N,Net-(U1-PC7)*%
X165965500Y-88646000D03*
%TD*%
%TO.P,R8,1*%
%TO.N,Net-(D1-K)*%
X171600500Y-90170000D03*
%TO.P,R8,2*%
%TO.N,GND*%
X169775500Y-90170000D03*
%TD*%
%TO.P,R12,1*%
%TO.N,Net-(BZ1--)*%
X159408500Y-90170000D03*
%TO.P,R12,2*%
%TO.N,Net-(U1-PB5)*%
X157583500Y-90170000D03*
%TD*%
D25*
%TO.P,C2,1*%
%TO.N,+5V*%
X144118500Y-75438000D03*
%TO.P,C2,2*%
%TO.N,GND*%
X142393500Y-75438000D03*
%TD*%
D31*
%TO.P,Q1,1,B*%
%TO.N,Net-(D1-A)*%
X169418000Y-78354000D03*
%TO.P,Q1,2,E*%
%TO.N,GND*%
X169418000Y-76454000D03*
%TO.P,Q1,3,C*%
%TO.N,Net-(Q1-C)*%
X171293000Y-77404000D03*
%TD*%
D19*
%TO.P,C6,1*%
%TO.N,+5V*%
X141123500Y-88138000D03*
%TO.P,C6,2*%
%TO.N,GND*%
X142848500Y-88138000D03*
%TD*%
D32*
%TO.P,SW1,1,1*%
%TO.N,GND*%
X145778000Y-72682000D03*
X149878000Y-72682000D03*
%TO.P,SW1,2,2*%
%TO.N,RESET*%
X145778000Y-71082000D03*
X149878000Y-71082000D03*
%TD*%
D33*
%TO.N,GND*%
X128270000Y-84074000D03*
X128270000Y-81026000D03*
X154686000Y-94488000D03*
X128524000Y-85852000D03*
X146050000Y-93726000D03*
X155448000Y-76122758D03*
X132588000Y-78486000D03*
X148082000Y-94488000D03*
X168148000Y-90170000D03*
X142748000Y-89662000D03*
X144018000Y-77839371D03*
X146304000Y-90678000D03*
X151638000Y-73152000D03*
X156464000Y-77470000D03*
X168910000Y-84836000D03*
X167640000Y-76454000D03*
X159038427Y-86071573D03*
%TO.N,+5V*%
X150368000Y-77978000D03*
%TO.N,/INT0*%
X135953500Y-85661500D03*
X153924000Y-80772000D03*
%TO.N,/INT1*%
X154801371Y-81395371D03*
X133096000Y-84836000D03*
%TO.N,/INT3*%
X128270000Y-82296000D03*
X155448000Y-82296000D03*
%TO.N,Net-(D1-K)*%
X169926000Y-83566000D03*
%TO.N,MISO*%
X146018332Y-76186208D03*
%TO.N,SCK*%
X146934701Y-76585299D03*
%TO.N,MOSI*%
X146812000Y-75438000D03*
%TO.N,RESET*%
X151384000Y-77978000D03*
%TD*%
D34*
%TO.N,Net-(BZ1--)*%
X162466500Y-87112000D02*
X162814000Y-87112000D01*
X159408500Y-90170000D02*
X162466500Y-87112000D01*
%TO.N,Net-(U1-PB5)*%
X157583500Y-90170000D02*
X156348629Y-90170000D01*
X156348629Y-90170000D02*
X154086823Y-87908194D01*
X157503500Y-90297000D02*
X157503500Y-90263500D01*
%TO.N,Net-(U1-AREF)*%
X144526000Y-87630000D02*
X144018000Y-87122000D01*
X144526000Y-90016500D02*
X144526000Y-87630000D01*
X144018000Y-87122000D02*
X144018000Y-86521887D01*
X144018000Y-86521887D02*
X144894435Y-85645452D01*
X143356500Y-91186000D02*
X144526000Y-90016500D01*
%TO.N,GND*%
X142848500Y-86560017D02*
X144328750Y-85079767D01*
X130302000Y-80999000D02*
X128297000Y-80999000D01*
X157480936Y-84514082D02*
X157666082Y-84514082D01*
X128270000Y-81026000D02*
X130275000Y-81026000D01*
X130275000Y-81026000D02*
X130302000Y-80999000D01*
X132588000Y-78486000D02*
X134912500Y-78486000D01*
X169775500Y-90170000D02*
X168148000Y-90170000D01*
X153521138Y-78150120D02*
X155448000Y-76223258D01*
X141631500Y-91186000D02*
X141631500Y-90778500D01*
X160020000Y-87376000D02*
X160020000Y-87053146D01*
X166878000Y-84196000D02*
X166878000Y-85231000D01*
X149878000Y-72682000D02*
X151168000Y-72682000D01*
X155548500Y-76022258D02*
X155448000Y-76122758D01*
X134912500Y-78486000D02*
X135979500Y-77419000D01*
X145778000Y-72682000D02*
X149878000Y-72682000D01*
X140562500Y-75438000D02*
X142393500Y-75438000D01*
X142393500Y-75809005D02*
X144018000Y-77433505D01*
X142848500Y-88138000D02*
X142848500Y-86560017D01*
X142393500Y-75438000D02*
X142393500Y-75809005D01*
X130302000Y-78499000D02*
X132575000Y-78499000D01*
X155548500Y-74422000D02*
X155548500Y-76022258D01*
X130302000Y-85999000D02*
X128671000Y-85999000D01*
X160020000Y-87053146D02*
X159038427Y-86071573D01*
X155448000Y-76223258D02*
X155448000Y-76122758D01*
X147828000Y-90678000D02*
X146304000Y-90678000D01*
X145949500Y-92202000D02*
X145949500Y-93625500D01*
X156718000Y-77216000D02*
X156464000Y-77470000D01*
X159038427Y-86071573D02*
X157480936Y-84514082D01*
X145949500Y-91032500D02*
X146304000Y-90678000D01*
X166878000Y-85231000D02*
X167753000Y-86106000D01*
X146025806Y-79847177D02*
X144018000Y-77839371D01*
X132575000Y-78499000D02*
X132588000Y-78486000D01*
X159131000Y-77216000D02*
X160518000Y-77216000D01*
X135382000Y-82169000D02*
X132072749Y-82169000D01*
X128845000Y-83499000D02*
X128270000Y-84074000D01*
X148854233Y-89651767D02*
X147828000Y-90678000D01*
X167753000Y-85993000D02*
X168910000Y-84836000D01*
X169418000Y-76454000D02*
X167640000Y-76454000D01*
X151168000Y-72682000D02*
X151638000Y-73152000D01*
X132072749Y-82169000D02*
X130902749Y-80999000D01*
X159131000Y-77216000D02*
X156718000Y-77216000D01*
X144018000Y-77433505D02*
X144018000Y-77839371D01*
X128297000Y-80999000D02*
X128270000Y-81026000D01*
X145949500Y-92202000D02*
X145949500Y-91032500D01*
X151384000Y-94488000D02*
X154686000Y-94488000D01*
X142848500Y-88138000D02*
X142848500Y-89561500D01*
X130902749Y-80999000D02*
X130302000Y-80999000D01*
X151384000Y-94488000D02*
X148082000Y-94488000D01*
X142848500Y-89561500D02*
X142748000Y-89662000D01*
X145949500Y-93625500D02*
X146050000Y-93726000D01*
X141631500Y-90778500D02*
X142748000Y-89662000D01*
X148854233Y-89605250D02*
X148854233Y-89651767D01*
X130302000Y-83499000D02*
X128845000Y-83499000D01*
X167753000Y-86106000D02*
X167753000Y-85993000D01*
X128671000Y-85999000D02*
X128524000Y-85852000D01*
%TO.N,+5V*%
X150622000Y-77724000D02*
X150368000Y-77978000D01*
X150368000Y-74930000D02*
X150622000Y-75184000D01*
X139954000Y-89662000D02*
X139954000Y-88138000D01*
X130302000Y-88499000D02*
X133752396Y-88499000D01*
X145288000Y-82503483D02*
X145288000Y-83312000D01*
X139446000Y-90170000D02*
X139954000Y-89662000D01*
X166093749Y-82927498D02*
X164338000Y-81171749D01*
X164822251Y-84836000D02*
X166093749Y-83564502D01*
X133752396Y-88499000D02*
X135129396Y-87122000D01*
X138176000Y-87122000D02*
X139192000Y-88138000D01*
X156915250Y-85079767D02*
X155655483Y-83820000D01*
X150622000Y-90170000D02*
X150622000Y-88900000D01*
X150622000Y-75184000D02*
X150622000Y-77724000D01*
X135129396Y-87122000D02*
X138176000Y-87122000D01*
X152955452Y-77584435D02*
X153823500Y-76716387D01*
X145288000Y-83312000D02*
X143002000Y-83312000D01*
X161139500Y-83312000D02*
X156464000Y-83312000D01*
X155598500Y-72136000D02*
X155598500Y-72647000D01*
X151638000Y-92202000D02*
X150876000Y-91440000D01*
X155655483Y-83820000D02*
X154940000Y-83820000D01*
X149351064Y-90170936D02*
X147674500Y-91847500D01*
X164338000Y-79097500D02*
X164338000Y-81026000D01*
X156614500Y-93472000D02*
X155194000Y-93472000D01*
X147674500Y-91847500D02*
X147674500Y-92202000D01*
X144328750Y-81544233D02*
X145288000Y-82503483D01*
X165457500Y-77978000D02*
X164338000Y-79097500D01*
X153924000Y-92202000D02*
X152146000Y-92202000D01*
X149419918Y-90170936D02*
X150621064Y-90170936D01*
X147157177Y-78715806D02*
X144118500Y-75677129D01*
X152955452Y-77584435D02*
X152955452Y-77676548D01*
X168863000Y-82042000D02*
X167593000Y-83312000D01*
X139954000Y-88138000D02*
X141123500Y-88138000D01*
X144118500Y-75677129D02*
X144118500Y-75438000D01*
X152955452Y-77676548D02*
X151638000Y-78994000D01*
X155598500Y-72647000D02*
X153823500Y-74422000D01*
X147157177Y-78715806D02*
X148451371Y-80010000D01*
X158295000Y-86459517D02*
X158295000Y-87376000D01*
X157630500Y-92456000D02*
X156614500Y-93472000D01*
X161139500Y-83312000D02*
X162663500Y-84836000D01*
X139192000Y-88138000D02*
X139954000Y-88138000D01*
X154432000Y-92710000D02*
X153924000Y-92202000D01*
X150621064Y-90170936D02*
X150622000Y-90170000D01*
X153823500Y-76716387D02*
X153823500Y-74422000D01*
X166093749Y-83312000D02*
X166093749Y-82927498D01*
X155194000Y-93472000D02*
X154432000Y-92710000D01*
X148451371Y-80010000D02*
X148844000Y-80010000D01*
X162663500Y-84836000D02*
X164822251Y-84836000D01*
X149419918Y-90170936D02*
X149351064Y-90170936D01*
X164338000Y-81171749D02*
X164338000Y-81026000D01*
X152146000Y-92202000D02*
X151638000Y-92202000D01*
X166093749Y-83564502D02*
X166093749Y-83312000D01*
X167593000Y-83312000D02*
X166093749Y-83312000D01*
X156915250Y-85079767D02*
X158295000Y-86459517D01*
%TO.N,Net-(U1-UCAP)*%
X143256000Y-75946000D02*
X143256000Y-74930000D01*
X139637500Y-74638000D02*
X138837500Y-75438000D01*
X143256000Y-74930000D02*
X142964000Y-74638000D01*
X146591491Y-79281491D02*
X143256000Y-75946000D01*
X142964000Y-74638000D02*
X139637500Y-74638000D01*
%TO.N,Net-(U1-XTAL1)*%
X159131000Y-78416000D02*
X155518000Y-78416000D01*
X155518000Y-78416000D02*
X154652509Y-79281491D01*
%TO.N,Net-(U1-XTAL2)*%
X154086823Y-78715806D02*
X156786629Y-76016000D01*
X156786629Y-76016000D02*
X159131000Y-76016000D01*
%TO.N,Net-(D1-A)*%
X169418000Y-78354000D02*
X169418000Y-78740000D01*
X169775500Y-88392000D02*
X169775500Y-84986500D01*
X169775500Y-84986500D02*
X172720000Y-82042000D01*
X169418000Y-78740000D02*
X172720000Y-82042000D01*
%TO.N,Net-(D2-A)*%
X167790500Y-88646000D02*
X167790500Y-87893500D01*
X167790500Y-87893500D02*
X166003000Y-86106000D01*
%TO.N,/INT0*%
X136464000Y-81219000D02*
X136779000Y-81534000D01*
X135953500Y-85661500D02*
X134366000Y-87249000D01*
X154293371Y-80772000D02*
X155218194Y-79847177D01*
X134366000Y-87249000D02*
X130302000Y-87249000D01*
X136779000Y-81534000D02*
X136779000Y-84836000D01*
X135382000Y-81219000D02*
X136464000Y-81219000D01*
X153924000Y-80772000D02*
X154293371Y-80772000D01*
X136779000Y-84836000D02*
X135953500Y-85661500D01*
%TO.N,/INT1*%
X133056000Y-84749000D02*
X134686000Y-83119000D01*
X134686000Y-83119000D02*
X135382000Y-83119000D01*
X154801371Y-81395371D02*
X155783880Y-80412862D01*
X130302000Y-84749000D02*
X133056000Y-84749000D01*
%TO.N,/INT3*%
X155448000Y-82296000D02*
X156163483Y-82296000D01*
X130255000Y-82296000D02*
X130302000Y-82249000D01*
X133107000Y-83119000D02*
X132014000Y-83119000D01*
X132014000Y-83119000D02*
X131144000Y-82249000D01*
X156163483Y-82296000D02*
X156915250Y-81544233D01*
X131144000Y-82249000D02*
X130302000Y-82249000D01*
X128270000Y-82296000D02*
X130255000Y-82296000D01*
%TO.N,/INT6*%
X133107000Y-81219000D02*
X134062000Y-80264000D01*
X141934000Y-83364000D02*
X143188082Y-82109918D01*
X136652000Y-80264000D02*
X137229000Y-80841000D01*
X137229000Y-82619000D02*
X137974000Y-83364000D01*
X133107000Y-81219000D02*
X132654000Y-81219000D01*
X137229000Y-80841000D02*
X137229000Y-82619000D01*
X134062000Y-80264000D02*
X136652000Y-80264000D01*
X132654000Y-81219000D02*
X131184000Y-79749000D01*
X137974000Y-83364000D02*
X141934000Y-83364000D01*
X143188082Y-82109918D02*
X143763064Y-82109918D01*
X131184000Y-79749000D02*
X130302000Y-79749000D01*
%TO.N,Net-(J1-D-)*%
X140689500Y-82189000D02*
X140689500Y-79251000D01*
X140689500Y-79251000D02*
X140819500Y-79121000D01*
%TO.N,Net-(J1-D+)*%
X138689500Y-82189000D02*
X139954000Y-80924500D01*
X139954000Y-80924500D02*
X139954000Y-78208500D01*
X139954000Y-78208500D02*
X140819500Y-77343000D01*
%TO.N,/RX*%
X162964500Y-83312000D02*
X159916500Y-80264000D01*
X157064113Y-80264000D02*
X156349565Y-80978548D01*
X162964500Y-83312000D02*
X164937000Y-83312000D01*
X164937000Y-83312000D02*
X165003000Y-83246000D01*
X159916500Y-80264000D02*
X157064113Y-80264000D01*
%TO.N,Net-(U1-D-)*%
X143036887Y-79121000D02*
X144894435Y-80978548D01*
X142644500Y-79121000D02*
X143036887Y-79121000D01*
%TO.N,Net-(U1-D+)*%
X145460120Y-80412862D02*
X142644500Y-77597242D01*
X142644500Y-77597242D02*
X142644500Y-77343000D01*
%TO.N,Net-(U1-~{HWB}{slash}PE2)*%
X151824082Y-90170936D02*
X153347146Y-91694000D01*
X155448000Y-92456000D02*
X155805500Y-92456000D01*
X153347146Y-91694000D02*
X154686000Y-91694000D01*
X154686000Y-91694000D02*
X155448000Y-92456000D01*
%TO.N,Net-(U1-PC7)*%
X163068000Y-88646000D02*
X160528000Y-91186000D01*
X165965500Y-88646000D02*
X163068000Y-88646000D01*
X160528000Y-91186000D02*
X153970517Y-91186000D01*
X153970517Y-91186000D02*
X152389767Y-89605250D01*
%TO.N,Net-(D1-K)*%
X169926000Y-83566000D02*
X169926000Y-82804000D01*
X171600500Y-88392000D02*
X172720000Y-87272500D01*
X171600500Y-90170000D02*
X171600500Y-88392000D01*
X172720000Y-87272500D02*
X172720000Y-84582000D01*
X169926000Y-82804000D02*
X170688000Y-82042000D01*
%TO.N,Net-(Q1-C)*%
X167282500Y-80264000D02*
X167282500Y-77978000D01*
X167282500Y-77978000D02*
X167856500Y-77404000D01*
X167856500Y-77404000D02*
X171293000Y-77404000D01*
%TO.N,Net-(Q2-B)*%
X165608000Y-80264000D02*
X165457500Y-80264000D01*
X166878000Y-82296000D02*
X166878000Y-81534000D01*
X166878000Y-81534000D02*
X165608000Y-80264000D01*
%TO.N,MISO*%
X147679854Y-74713000D02*
X149419918Y-76453064D01*
X146018332Y-76186208D02*
X146087000Y-76254876D01*
X146087000Y-75137695D02*
X146511695Y-74713000D01*
X146511695Y-74713000D02*
X147679854Y-74713000D01*
X146087000Y-76254876D02*
X146087000Y-75137695D01*
%TO.N,SCK*%
X147289412Y-76585299D02*
X148288548Y-77584435D01*
X146934701Y-76585299D02*
X147289412Y-76585299D01*
%TO.N,MOSI*%
X146812000Y-75438000D02*
X147273483Y-75438000D01*
X147273483Y-75438000D02*
X148854233Y-77018750D01*
X148854233Y-77018750D02*
X148082000Y-76246517D01*
%TO.N,RESET*%
X151384000Y-77978000D02*
X151430517Y-77978000D01*
X151092000Y-71082000D02*
X149878000Y-71082000D01*
X149878000Y-71082000D02*
X145778000Y-71082000D01*
X152389767Y-77018750D02*
X152873866Y-76534651D01*
X153265500Y-71628000D02*
X153773500Y-72136000D01*
X152873866Y-73035634D02*
X153773500Y-72136000D01*
X152873866Y-76534651D02*
X152873866Y-73035634D01*
X151638000Y-71628000D02*
X151092000Y-71082000D01*
X151638000Y-71628000D02*
X153265500Y-71628000D01*
X151430517Y-77978000D02*
X152389767Y-77018750D01*
%TD*%
%TA.AperFunction,Conductor*%
%TO.N,+5V*%
G36*
X150666032Y-77090904D02*
G01*
X150711094Y-77119864D01*
X150743926Y-77152696D01*
X150777950Y-77215009D01*
X150772884Y-77285824D01*
X150748466Y-77326100D01*
X150644961Y-77441054D01*
X150644958Y-77441058D01*
X150569471Y-77571806D01*
X150549473Y-77606444D01*
X150534999Y-77650986D01*
X150490457Y-77788072D01*
X150470496Y-77978000D01*
X150490457Y-78167927D01*
X150502852Y-78206074D01*
X150549473Y-78349556D01*
X150549476Y-78349561D01*
X150644958Y-78514941D01*
X150644965Y-78514951D01*
X150772744Y-78656864D01*
X150772747Y-78656866D01*
X150927248Y-78769118D01*
X151101712Y-78846794D01*
X151288513Y-78886500D01*
X151479487Y-78886500D01*
X151666288Y-78846794D01*
X151840752Y-78769118D01*
X151995253Y-78656866D01*
X152026538Y-78622119D01*
X152086984Y-78584880D01*
X152157968Y-78586231D01*
X152209270Y-78617335D01*
X152294708Y-78702773D01*
X152294738Y-78702800D01*
X152342173Y-78741025D01*
X152361221Y-78760072D01*
X152402390Y-78811159D01*
X152402412Y-78811183D01*
X152860074Y-79268845D01*
X152860098Y-79268867D01*
X152909344Y-79308552D01*
X152928391Y-79327599D01*
X152929861Y-79329423D01*
X152929862Y-79329425D01*
X152968082Y-79376853D01*
X152968090Y-79376861D01*
X152968097Y-79376869D01*
X153423666Y-79832438D01*
X153457692Y-79894750D01*
X153452627Y-79965565D01*
X153410080Y-80022401D01*
X153408632Y-80023469D01*
X153312744Y-80093135D01*
X153184965Y-80235048D01*
X153184958Y-80235058D01*
X153089476Y-80400438D01*
X153089473Y-80400445D01*
X153030457Y-80582072D01*
X153010496Y-80771999D01*
X153030457Y-80961927D01*
X153051433Y-81026481D01*
X153089473Y-81143556D01*
X153089476Y-81143561D01*
X153184958Y-81308941D01*
X153184965Y-81308951D01*
X153312744Y-81450864D01*
X153312747Y-81450866D01*
X153467248Y-81563118D01*
X153641712Y-81640794D01*
X153828513Y-81680500D01*
X153847218Y-81680500D01*
X153915339Y-81700502D01*
X153961832Y-81754158D01*
X153966514Y-81766185D01*
X153966841Y-81766920D01*
X153966844Y-81766927D01*
X153966847Y-81766932D01*
X154062329Y-81932312D01*
X154062336Y-81932322D01*
X154190115Y-82074235D01*
X154190118Y-82074237D01*
X154344619Y-82186489D01*
X154465284Y-82240212D01*
X154519380Y-82286192D01*
X154539346Y-82342149D01*
X154554457Y-82485927D01*
X154584526Y-82578470D01*
X154613473Y-82667556D01*
X154613476Y-82667561D01*
X154708958Y-82832941D01*
X154708965Y-82832951D01*
X154836744Y-82974864D01*
X154836747Y-82974866D01*
X154991248Y-83087118D01*
X155165712Y-83164794D01*
X155352513Y-83204500D01*
X155543487Y-83204500D01*
X155730288Y-83164794D01*
X155904752Y-83087118D01*
X156059253Y-82974866D01*
X156061998Y-82971816D01*
X156064032Y-82970563D01*
X156064164Y-82970445D01*
X156064185Y-82970469D01*
X156122441Y-82934573D01*
X156151678Y-82930184D01*
X156171319Y-82929566D01*
X156173444Y-82929500D01*
X156203334Y-82929500D01*
X156203339Y-82929500D01*
X156210301Y-82928619D01*
X156216202Y-82928154D01*
X156263372Y-82926673D01*
X156282830Y-82921019D01*
X156302177Y-82917013D01*
X156322280Y-82914474D01*
X156366162Y-82897099D01*
X156371757Y-82895183D01*
X156389049Y-82890160D01*
X156460045Y-82890365D01*
X156513292Y-82922062D01*
X156814135Y-83222905D01*
X156848159Y-83285216D01*
X156843095Y-83356031D01*
X156814135Y-83401094D01*
X156362201Y-83853028D01*
X156362188Y-83853042D01*
X156321021Y-83904128D01*
X156301974Y-83923175D01*
X156254526Y-83961410D01*
X156205314Y-84010621D01*
X156205314Y-84010622D01*
X156214225Y-84019533D01*
X156248251Y-84081845D01*
X156249848Y-84126557D01*
X156242423Y-84178204D01*
X156256878Y-84278745D01*
X156246773Y-84349019D01*
X156200280Y-84402674D01*
X156132159Y-84422676D01*
X156114229Y-84421394D01*
X156095512Y-84418703D01*
X156013689Y-84406939D01*
X156013688Y-84406939D01*
X156013687Y-84406939D01*
X155962039Y-84414364D01*
X155891765Y-84404258D01*
X155855015Y-84378741D01*
X155846105Y-84369831D01*
X155846104Y-84369831D01*
X155796893Y-84419043D01*
X155758662Y-84466486D01*
X155739616Y-84485533D01*
X155688517Y-84526712D01*
X155688501Y-84526726D01*
X155230839Y-84984388D01*
X155230817Y-84984412D01*
X155191130Y-85033661D01*
X155172084Y-85052707D01*
X155122840Y-85092390D01*
X155122816Y-85092412D01*
X154665154Y-85550074D01*
X154665132Y-85550098D01*
X154625449Y-85599342D01*
X154606403Y-85618388D01*
X154557154Y-85658075D01*
X154557130Y-85658097D01*
X154099468Y-86115759D01*
X154099446Y-86115783D01*
X154059759Y-86165032D01*
X154040713Y-86184078D01*
X153991469Y-86223761D01*
X153991445Y-86223783D01*
X153533783Y-86681445D01*
X153533761Y-86681469D01*
X153494078Y-86730713D01*
X153475032Y-86749759D01*
X153425783Y-86789446D01*
X153425759Y-86789468D01*
X152968097Y-87247130D01*
X152968075Y-87247154D01*
X152928388Y-87296403D01*
X152909342Y-87315449D01*
X152860098Y-87355132D01*
X152860074Y-87355154D01*
X152402412Y-87812816D01*
X152402390Y-87812840D01*
X152362707Y-87862084D01*
X152343661Y-87881130D01*
X152294412Y-87920817D01*
X152294388Y-87920839D01*
X151836726Y-88378501D01*
X151836702Y-88378528D01*
X151797018Y-88427772D01*
X151777974Y-88446816D01*
X151728730Y-88486500D01*
X151728703Y-88486524D01*
X151271041Y-88944186D01*
X151271019Y-88944210D01*
X151231332Y-88993459D01*
X151212286Y-89012505D01*
X151163042Y-89052188D01*
X151163028Y-89052201D01*
X150710741Y-89504488D01*
X150648429Y-89538513D01*
X150577613Y-89533448D01*
X150532551Y-89504487D01*
X150489064Y-89461000D01*
X150489063Y-89461000D01*
X149779127Y-90170935D01*
X149779127Y-90170936D01*
X150153186Y-90544995D01*
X150153187Y-90544995D01*
X150532549Y-90165632D01*
X150594862Y-90131607D01*
X150665677Y-90136671D01*
X150710740Y-90165632D01*
X151834770Y-91289662D01*
X151834779Y-91289670D01*
X151834786Y-91289677D01*
X151840044Y-91293914D01*
X151840486Y-91294270D01*
X151880978Y-91352588D01*
X151883512Y-91423539D01*
X151850522Y-91481475D01*
X151103905Y-92228095D01*
X151041592Y-92262120D01*
X151014809Y-92265000D01*
X150229190Y-92265000D01*
X150161069Y-92244998D01*
X150140095Y-92228095D01*
X149393119Y-91481119D01*
X149359093Y-91418807D01*
X149364158Y-91347992D01*
X149403154Y-91293914D01*
X149408896Y-91289286D01*
X149793977Y-90904206D01*
X149793977Y-90904204D01*
X149317741Y-90427968D01*
X149283715Y-90365656D01*
X149288780Y-90294841D01*
X149317737Y-90249782D01*
X149972974Y-89594546D01*
X150011194Y-89547117D01*
X150071937Y-89414108D01*
X150092746Y-89269374D01*
X150085320Y-89217726D01*
X150095423Y-89147455D01*
X150120943Y-89110700D01*
X150129853Y-89101790D01*
X150129853Y-89101789D01*
X150080661Y-89052597D01*
X150080631Y-89052570D01*
X150033197Y-89014346D01*
X150014148Y-88995297D01*
X149972985Y-88944216D01*
X149972979Y-88944210D01*
X149972974Y-88944203D01*
X149972967Y-88944196D01*
X149972958Y-88944186D01*
X149515296Y-88486524D01*
X149515272Y-88486502D01*
X149466024Y-88446815D01*
X149446977Y-88427768D01*
X149445509Y-88425946D01*
X149407289Y-88378518D01*
X149407279Y-88378508D01*
X149407273Y-88378501D01*
X148949611Y-87920839D01*
X148949603Y-87920832D01*
X148949595Y-87920824D01*
X148902167Y-87882604D01*
X148902165Y-87882603D01*
X148900341Y-87881133D01*
X148881294Y-87862086D01*
X148841609Y-87812840D01*
X148841587Y-87812816D01*
X148383925Y-87355154D01*
X148383901Y-87355132D01*
X148334660Y-87315451D01*
X148315614Y-87296406D01*
X148291615Y-87266626D01*
X148275918Y-87247147D01*
X148275909Y-87247138D01*
X148275902Y-87247130D01*
X147818240Y-86789468D01*
X147818232Y-86789461D01*
X147818224Y-86789453D01*
X147770796Y-86751233D01*
X147770794Y-86751232D01*
X147768970Y-86749762D01*
X147749923Y-86730715D01*
X147710238Y-86681469D01*
X147710216Y-86681445D01*
X147252554Y-86223783D01*
X147252530Y-86223761D01*
X147203289Y-86184080D01*
X147184243Y-86165035D01*
X147164267Y-86140247D01*
X147144547Y-86115776D01*
X147144538Y-86115767D01*
X147144531Y-86115759D01*
X146686869Y-85658097D01*
X146686861Y-85658090D01*
X146686853Y-85658082D01*
X146639425Y-85619862D01*
X146639423Y-85619861D01*
X146637599Y-85618391D01*
X146618552Y-85599344D01*
X146578867Y-85550098D01*
X146578845Y-85550074D01*
X146121183Y-85092412D01*
X146121159Y-85092390D01*
X146071918Y-85052709D01*
X146052872Y-85033664D01*
X146021351Y-84994550D01*
X146013176Y-84984405D01*
X146013167Y-84984396D01*
X146013160Y-84984388D01*
X145555498Y-84526726D01*
X145555474Y-84526704D01*
X145506226Y-84487017D01*
X145487179Y-84467970D01*
X145477492Y-84455949D01*
X145447491Y-84418720D01*
X145447481Y-84418710D01*
X145447475Y-84418703D01*
X144989813Y-83961041D01*
X144989789Y-83961019D01*
X144938699Y-83919848D01*
X144919652Y-83900801D01*
X144881421Y-83853359D01*
X144881402Y-83853338D01*
X144832210Y-83804146D01*
X144832207Y-83804146D01*
X144823296Y-83813057D01*
X144760984Y-83847082D01*
X144716272Y-83848679D01*
X144664627Y-83841254D01*
X144664626Y-83841254D01*
X144592258Y-83851658D01*
X144519891Y-83862063D01*
X144386882Y-83922806D01*
X144339457Y-83961023D01*
X144339438Y-83961040D01*
X143210023Y-85090455D01*
X143210006Y-85090474D01*
X143171789Y-85137899D01*
X143111045Y-85270911D01*
X143095073Y-85381996D01*
X143065580Y-85446576D01*
X143059451Y-85453158D01*
X142459833Y-86052776D01*
X142447401Y-86062738D01*
X142447589Y-86062965D01*
X142441480Y-86068018D01*
X142393515Y-86119096D01*
X142372366Y-86140244D01*
X142368060Y-86145794D01*
X142364214Y-86150296D01*
X142331917Y-86184691D01*
X142331911Y-86184700D01*
X142322151Y-86202452D01*
X142311303Y-86218967D01*
X142298886Y-86234975D01*
X142280145Y-86278281D01*
X142277534Y-86283611D01*
X142254805Y-86324956D01*
X142254803Y-86324961D01*
X142249767Y-86344576D01*
X142243364Y-86363279D01*
X142235319Y-86381869D01*
X142227937Y-86428473D01*
X142226733Y-86434285D01*
X142215000Y-86479985D01*
X142215000Y-86500240D01*
X142213449Y-86519950D01*
X142210280Y-86539959D01*
X142210280Y-86539960D01*
X142214720Y-86586934D01*
X142215000Y-86592867D01*
X142215000Y-87159386D01*
X142194998Y-87227507D01*
X142155148Y-87266626D01*
X142082656Y-87311340D01*
X142082647Y-87311347D01*
X142074741Y-87319254D01*
X142012429Y-87353280D01*
X141941614Y-87348215D01*
X141896551Y-87319254D01*
X141889039Y-87311742D01*
X141889033Y-87311737D01*
X141740707Y-87220248D01*
X141575276Y-87165431D01*
X141575273Y-87165430D01*
X141473184Y-87155000D01*
X141377500Y-87155000D01*
X141377500Y-88266000D01*
X141357498Y-88334121D01*
X141303842Y-88380614D01*
X141251500Y-88392000D01*
X140078000Y-88392000D01*
X140078000Y-88425184D01*
X140088430Y-88527273D01*
X140088431Y-88527276D01*
X140143249Y-88692708D01*
X140152590Y-88707852D01*
X140171328Y-88776331D01*
X140150069Y-88844070D01*
X140095563Y-88889562D01*
X140045350Y-88900000D01*
X139826000Y-88900000D01*
X139757879Y-88879998D01*
X139711386Y-88826342D01*
X139700000Y-88774000D01*
X139700000Y-87884000D01*
X140078000Y-87884000D01*
X140869500Y-87884000D01*
X140869500Y-87155000D01*
X140773815Y-87155000D01*
X140671726Y-87165430D01*
X140671723Y-87165431D01*
X140506292Y-87220248D01*
X140357966Y-87311737D01*
X140357960Y-87311742D01*
X140234742Y-87434960D01*
X140234737Y-87434966D01*
X140143248Y-87583292D01*
X140088431Y-87748723D01*
X140088430Y-87748726D01*
X140078000Y-87850815D01*
X140078000Y-87884000D01*
X139700000Y-87884000D01*
X139700000Y-86173000D01*
X139720002Y-86104879D01*
X139773658Y-86058386D01*
X139826000Y-86047000D01*
X140435500Y-86047000D01*
X140435500Y-85072565D01*
X140487659Y-85108127D01*
X140620166Y-85149000D01*
X140723974Y-85149000D01*
X140826619Y-85133529D01*
X140943500Y-85077241D01*
X140943500Y-86047000D01*
X141588085Y-86047000D01*
X141588097Y-86046999D01*
X141648593Y-86040494D01*
X141785464Y-85989444D01*
X141785465Y-85989444D01*
X141902404Y-85901904D01*
X141989944Y-85784965D01*
X141989944Y-85784964D01*
X142040994Y-85648093D01*
X142047499Y-85587597D01*
X142047500Y-85587585D01*
X142047500Y-84943000D01*
X141074016Y-84943000D01*
X141122539Y-84858955D01*
X141153395Y-84723764D01*
X141143033Y-84585484D01*
X141092372Y-84456402D01*
X141075304Y-84435000D01*
X142047500Y-84435000D01*
X142047500Y-84086037D01*
X142067502Y-84017916D01*
X142121158Y-83971423D01*
X142127100Y-83968891D01*
X142136686Y-83965096D01*
X142142267Y-83963185D01*
X142174242Y-83953896D01*
X142187591Y-83950019D01*
X142187595Y-83950017D01*
X142205026Y-83939708D01*
X142222780Y-83931009D01*
X142241617Y-83923552D01*
X142279786Y-83895818D01*
X142284744Y-83892562D01*
X142325362Y-83868542D01*
X142339685Y-83854218D01*
X142354724Y-83841374D01*
X142371107Y-83829472D01*
X142401193Y-83793103D01*
X142405161Y-83788741D01*
X143280412Y-82913490D01*
X143342722Y-82879466D01*
X143413537Y-82884531D01*
X143458600Y-82913491D01*
X143768368Y-83223259D01*
X143802392Y-83285570D01*
X143797328Y-83356385D01*
X143768367Y-83401448D01*
X142644726Y-84525089D01*
X142644704Y-84525113D01*
X142606530Y-84572484D01*
X142545845Y-84705365D01*
X142525056Y-84849958D01*
X142545845Y-84994550D01*
X142606528Y-85127427D01*
X142644708Y-85174806D01*
X142644725Y-85174825D01*
X142693917Y-85224017D01*
X142693919Y-85224017D01*
X144472999Y-83444937D01*
X144472999Y-83444935D01*
X144429512Y-83401448D01*
X144395486Y-83339136D01*
X144400551Y-83268321D01*
X144429510Y-83223259D01*
X144881805Y-82770965D01*
X144920025Y-82723537D01*
X144920025Y-82723535D01*
X144922979Y-82719871D01*
X144942029Y-82700822D01*
X144989467Y-82662595D01*
X144989492Y-82662572D01*
X145038685Y-82613378D01*
X145038685Y-82613377D01*
X145029774Y-82604467D01*
X144995748Y-82542156D01*
X144994151Y-82497442D01*
X145001577Y-82445794D01*
X144987122Y-82345254D01*
X144997225Y-82274981D01*
X145043718Y-82221325D01*
X145111839Y-82201323D01*
X145129757Y-82202604D01*
X145230311Y-82217061D01*
X145281957Y-82209635D01*
X145352228Y-82219737D01*
X145388983Y-82245257D01*
X145397894Y-82254168D01*
X145397896Y-82254168D01*
X145447089Y-82204975D01*
X145447112Y-82204950D01*
X145485339Y-82157512D01*
X145504389Y-82138461D01*
X145508049Y-82135510D01*
X145508054Y-82135509D01*
X145555482Y-82097289D01*
X146013176Y-81639595D01*
X146051396Y-81592167D01*
X146051397Y-81592163D01*
X146052867Y-81590340D01*
X146071917Y-81571290D01*
X146073735Y-81569824D01*
X146073739Y-81569823D01*
X146121167Y-81531603D01*
X146578861Y-81073909D01*
X146617081Y-81026481D01*
X146617082Y-81026477D01*
X146618548Y-81024659D01*
X146637598Y-81005609D01*
X146639421Y-81004139D01*
X146639425Y-81004138D01*
X146686853Y-80965918D01*
X147144547Y-80508224D01*
X147182767Y-80460796D01*
X147182768Y-80460792D01*
X147184238Y-80458969D01*
X147203288Y-80439919D01*
X147205106Y-80438453D01*
X147205110Y-80438452D01*
X147252538Y-80400232D01*
X147710232Y-79942538D01*
X147748452Y-79895110D01*
X147748452Y-79895108D01*
X147751406Y-79891444D01*
X147770456Y-79872395D01*
X147817894Y-79834168D01*
X147817919Y-79834145D01*
X147867112Y-79784951D01*
X147867112Y-79784950D01*
X147858201Y-79776040D01*
X147824175Y-79713729D01*
X147822578Y-79669015D01*
X147830004Y-79617367D01*
X147815548Y-79516823D01*
X147825652Y-79446553D01*
X147872145Y-79392897D01*
X147940266Y-79372895D01*
X147958184Y-79374176D01*
X148058738Y-79388633D01*
X148110384Y-79381207D01*
X148180655Y-79391309D01*
X148217411Y-79416830D01*
X148226322Y-79425741D01*
X148226323Y-79425741D01*
X148275516Y-79376548D01*
X148275539Y-79376523D01*
X148313766Y-79329085D01*
X148332815Y-79310035D01*
X148336481Y-79307081D01*
X148383909Y-79268861D01*
X148841603Y-78811167D01*
X148879823Y-78763739D01*
X148879824Y-78763735D01*
X148881290Y-78761917D01*
X148900340Y-78742867D01*
X148902163Y-78741397D01*
X148902167Y-78741396D01*
X148949595Y-78703176D01*
X149407289Y-78245482D01*
X149445509Y-78198054D01*
X149445509Y-78198051D01*
X149446979Y-78196229D01*
X149466027Y-78177181D01*
X149467849Y-78175711D01*
X149467852Y-78175711D01*
X149515280Y-78137491D01*
X149972974Y-77679797D01*
X150011194Y-77632369D01*
X150011195Y-77632365D01*
X150012665Y-77630542D01*
X150031715Y-77611492D01*
X150033533Y-77610026D01*
X150033537Y-77610025D01*
X150080965Y-77571805D01*
X150532906Y-77119863D01*
X150595217Y-77085840D01*
X150666032Y-77090904D01*
G37*
%TD.AperFunction*%
%TA.AperFunction,Conductor*%
G36*
X158791476Y-82083476D02*
G01*
X159930904Y-83222904D01*
X159964930Y-83285216D01*
X159959865Y-83356031D01*
X159930904Y-83401095D01*
X158791475Y-84540522D01*
X158729163Y-84574547D01*
X158658347Y-84569482D01*
X158604270Y-84530486D01*
X158601228Y-84526711D01*
X158599677Y-84524786D01*
X158599670Y-84524779D01*
X158599662Y-84524770D01*
X157475987Y-83401095D01*
X157441961Y-83338783D01*
X157447026Y-83267968D01*
X157475987Y-83222905D01*
X158599662Y-82099229D01*
X158599677Y-82099214D01*
X158604266Y-82093518D01*
X158662577Y-82053023D01*
X158733528Y-82050481D01*
X158791476Y-82083476D01*
G37*
%TD.AperFunction*%
%TA.AperFunction,Conductor*%
G36*
X150666033Y-73974134D02*
G01*
X150711095Y-74003095D01*
X151850523Y-75142523D01*
X151884549Y-75204835D01*
X151879484Y-75275650D01*
X151840491Y-75329725D01*
X151834796Y-75334313D01*
X151834770Y-75334337D01*
X150711095Y-76458013D01*
X150648783Y-76492039D01*
X150577968Y-76486974D01*
X150532905Y-76458013D01*
X149409229Y-75334337D01*
X149409219Y-75334328D01*
X149409214Y-75334323D01*
X149409202Y-75334313D01*
X149409200Y-75334311D01*
X149403507Y-75329723D01*
X149363018Y-75271404D01*
X149360486Y-75200452D01*
X149393472Y-75142527D01*
X150532907Y-74003092D01*
X150595217Y-73969069D01*
X150666033Y-73974134D01*
G37*
%TD.AperFunction*%
%TD*%
M02*
