%TF.GenerationSoftware,KiCad,Pcbnew,7.0.6*%
%TF.CreationDate,2023-08-20T20:53:31-04:00*%
%TF.ProjectId,Safe-To-Mate-O-Matic-v3,53616665-2d54-46f2-9d4d-6174652d4f2d,rev?*%
%TF.SameCoordinates,Original*%
%TF.FileFunction,Legend,Bot*%
%TF.FilePolarity,Positive*%
%FSLAX46Y46*%
G04 Gerber Fmt 4.6, Leading zero omitted, Abs format (unit mm)*
G04 Created by KiCad (PCBNEW 7.0.6) date 2023-08-20 20:53:31*
%MOMM*%
%LPD*%
G01*
G04 APERTURE LIST*
%ADD10C,0.583000*%
%ADD11C,0.150000*%
%ADD12C,0.120000*%
G04 APERTURE END LIST*
D10*
X137197500Y-80264000D02*
G75*
G03*
X137197500Y-80264000I-291500J0D01*
G01*
X131863500Y-90170000D02*
G75*
G03*
X131863500Y-90170000I-291500J0D01*
G01*
X142531500Y-81280000D02*
G75*
G03*
X142531500Y-81280000I-291500J0D01*
G01*
D11*
X162274190Y-76178628D02*
X162274190Y-76654819D01*
X162607523Y-75654819D02*
X162274190Y-76178628D01*
X162274190Y-76178628D02*
X161940857Y-75654819D01*
X161655142Y-75750057D02*
X161607523Y-75702438D01*
X161607523Y-75702438D02*
X161512285Y-75654819D01*
X161512285Y-75654819D02*
X161274190Y-75654819D01*
X161274190Y-75654819D02*
X161178952Y-75702438D01*
X161178952Y-75702438D02*
X161131333Y-75750057D01*
X161131333Y-75750057D02*
X161083714Y-75845295D01*
X161083714Y-75845295D02*
X161083714Y-75940533D01*
X161083714Y-75940533D02*
X161131333Y-76083390D01*
X161131333Y-76083390D02*
X161702761Y-76654819D01*
X161702761Y-76654819D02*
X161083714Y-76654819D01*
X168822666Y-84020819D02*
X169155999Y-83544628D01*
X169394094Y-84020819D02*
X169394094Y-83020819D01*
X169394094Y-83020819D02*
X169013142Y-83020819D01*
X169013142Y-83020819D02*
X168917904Y-83068438D01*
X168917904Y-83068438D02*
X168870285Y-83116057D01*
X168870285Y-83116057D02*
X168822666Y-83211295D01*
X168822666Y-83211295D02*
X168822666Y-83354152D01*
X168822666Y-83354152D02*
X168870285Y-83449390D01*
X168870285Y-83449390D02*
X168917904Y-83497009D01*
X168917904Y-83497009D02*
X169013142Y-83544628D01*
X169013142Y-83544628D02*
X169394094Y-83544628D01*
X168489332Y-83020819D02*
X167822666Y-83020819D01*
X167822666Y-83020819D02*
X168251237Y-84020819D01*
X157392666Y-74781580D02*
X157440285Y-74829200D01*
X157440285Y-74829200D02*
X157583142Y-74876819D01*
X157583142Y-74876819D02*
X157678380Y-74876819D01*
X157678380Y-74876819D02*
X157821237Y-74829200D01*
X157821237Y-74829200D02*
X157916475Y-74733961D01*
X157916475Y-74733961D02*
X157964094Y-74638723D01*
X157964094Y-74638723D02*
X158011713Y-74448247D01*
X158011713Y-74448247D02*
X158011713Y-74305390D01*
X158011713Y-74305390D02*
X157964094Y-74114914D01*
X157964094Y-74114914D02*
X157916475Y-74019676D01*
X157916475Y-74019676D02*
X157821237Y-73924438D01*
X157821237Y-73924438D02*
X157678380Y-73876819D01*
X157678380Y-73876819D02*
X157583142Y-73876819D01*
X157583142Y-73876819D02*
X157440285Y-73924438D01*
X157440285Y-73924438D02*
X157392666Y-73972057D01*
X156535523Y-74210152D02*
X156535523Y-74876819D01*
X156773618Y-73829200D02*
X157011713Y-74543485D01*
X157011713Y-74543485D02*
X156392666Y-74543485D01*
X131905333Y-76416819D02*
X131905333Y-77131104D01*
X131905333Y-77131104D02*
X131952952Y-77273961D01*
X131952952Y-77273961D02*
X132048190Y-77369200D01*
X132048190Y-77369200D02*
X132191047Y-77416819D01*
X132191047Y-77416819D02*
X132286285Y-77416819D01*
X131476761Y-76512057D02*
X131429142Y-76464438D01*
X131429142Y-76464438D02*
X131333904Y-76416819D01*
X131333904Y-76416819D02*
X131095809Y-76416819D01*
X131095809Y-76416819D02*
X131000571Y-76464438D01*
X131000571Y-76464438D02*
X130952952Y-76512057D01*
X130952952Y-76512057D02*
X130905333Y-76607295D01*
X130905333Y-76607295D02*
X130905333Y-76702533D01*
X130905333Y-76702533D02*
X130952952Y-76845390D01*
X130952952Y-76845390D02*
X131524380Y-77416819D01*
X131524380Y-77416819D02*
X130905333Y-77416819D01*
X164179238Y-82338057D02*
X164274476Y-82290438D01*
X164274476Y-82290438D02*
X164369714Y-82195200D01*
X164369714Y-82195200D02*
X164512571Y-82052342D01*
X164512571Y-82052342D02*
X164607809Y-82004723D01*
X164607809Y-82004723D02*
X164703047Y-82004723D01*
X164655428Y-82242819D02*
X164750666Y-82195200D01*
X164750666Y-82195200D02*
X164845904Y-82099961D01*
X164845904Y-82099961D02*
X164893523Y-81909485D01*
X164893523Y-81909485D02*
X164893523Y-81576152D01*
X164893523Y-81576152D02*
X164845904Y-81385676D01*
X164845904Y-81385676D02*
X164750666Y-81290438D01*
X164750666Y-81290438D02*
X164655428Y-81242819D01*
X164655428Y-81242819D02*
X164464952Y-81242819D01*
X164464952Y-81242819D02*
X164369714Y-81290438D01*
X164369714Y-81290438D02*
X164274476Y-81385676D01*
X164274476Y-81385676D02*
X164226857Y-81576152D01*
X164226857Y-81576152D02*
X164226857Y-81909485D01*
X164226857Y-81909485D02*
X164274476Y-82099961D01*
X164274476Y-82099961D02*
X164369714Y-82195200D01*
X164369714Y-82195200D02*
X164464952Y-82242819D01*
X164464952Y-82242819D02*
X164655428Y-82242819D01*
X163845904Y-81338057D02*
X163798285Y-81290438D01*
X163798285Y-81290438D02*
X163703047Y-81242819D01*
X163703047Y-81242819D02*
X163464952Y-81242819D01*
X163464952Y-81242819D02*
X163369714Y-81290438D01*
X163369714Y-81290438D02*
X163322095Y-81338057D01*
X163322095Y-81338057D02*
X163274476Y-81433295D01*
X163274476Y-81433295D02*
X163274476Y-81528533D01*
X163274476Y-81528533D02*
X163322095Y-81671390D01*
X163322095Y-81671390D02*
X163893523Y-82242819D01*
X163893523Y-82242819D02*
X163274476Y-82242819D01*
X155614666Y-91640819D02*
X155947999Y-91164628D01*
X156186094Y-91640819D02*
X156186094Y-90640819D01*
X156186094Y-90640819D02*
X155805142Y-90640819D01*
X155805142Y-90640819D02*
X155709904Y-90688438D01*
X155709904Y-90688438D02*
X155662285Y-90736057D01*
X155662285Y-90736057D02*
X155614666Y-90831295D01*
X155614666Y-90831295D02*
X155614666Y-90974152D01*
X155614666Y-90974152D02*
X155662285Y-91069390D01*
X155662285Y-91069390D02*
X155709904Y-91117009D01*
X155709904Y-91117009D02*
X155805142Y-91164628D01*
X155805142Y-91164628D02*
X156186094Y-91164628D01*
X154757523Y-90974152D02*
X154757523Y-91640819D01*
X154995618Y-90593200D02*
X155233713Y-91307485D01*
X155233713Y-91307485D02*
X154614666Y-91307485D01*
X139104666Y-77924819D02*
X139437999Y-77448628D01*
X139676094Y-77924819D02*
X139676094Y-76924819D01*
X139676094Y-76924819D02*
X139295142Y-76924819D01*
X139295142Y-76924819D02*
X139199904Y-76972438D01*
X139199904Y-76972438D02*
X139152285Y-77020057D01*
X139152285Y-77020057D02*
X139104666Y-77115295D01*
X139104666Y-77115295D02*
X139104666Y-77258152D01*
X139104666Y-77258152D02*
X139152285Y-77353390D01*
X139152285Y-77353390D02*
X139199904Y-77401009D01*
X139199904Y-77401009D02*
X139295142Y-77448628D01*
X139295142Y-77448628D02*
X139676094Y-77448628D01*
X138771332Y-76924819D02*
X138152285Y-76924819D01*
X138152285Y-76924819D02*
X138485618Y-77305771D01*
X138485618Y-77305771D02*
X138342761Y-77305771D01*
X138342761Y-77305771D02*
X138247523Y-77353390D01*
X138247523Y-77353390D02*
X138199904Y-77401009D01*
X138199904Y-77401009D02*
X138152285Y-77496247D01*
X138152285Y-77496247D02*
X138152285Y-77734342D01*
X138152285Y-77734342D02*
X138199904Y-77829580D01*
X138199904Y-77829580D02*
X138247523Y-77877200D01*
X138247523Y-77877200D02*
X138342761Y-77924819D01*
X138342761Y-77924819D02*
X138628475Y-77924819D01*
X138628475Y-77924819D02*
X138723713Y-77877200D01*
X138723713Y-77877200D02*
X138771332Y-77829580D01*
X160694666Y-86465580D02*
X160742285Y-86513200D01*
X160742285Y-86513200D02*
X160885142Y-86560819D01*
X160885142Y-86560819D02*
X160980380Y-86560819D01*
X160980380Y-86560819D02*
X161123237Y-86513200D01*
X161123237Y-86513200D02*
X161218475Y-86417961D01*
X161218475Y-86417961D02*
X161266094Y-86322723D01*
X161266094Y-86322723D02*
X161313713Y-86132247D01*
X161313713Y-86132247D02*
X161313713Y-85989390D01*
X161313713Y-85989390D02*
X161266094Y-85798914D01*
X161266094Y-85798914D02*
X161218475Y-85703676D01*
X161218475Y-85703676D02*
X161123237Y-85608438D01*
X161123237Y-85608438D02*
X160980380Y-85560819D01*
X160980380Y-85560819D02*
X160885142Y-85560819D01*
X160885142Y-85560819D02*
X160742285Y-85608438D01*
X160742285Y-85608438D02*
X160694666Y-85656057D01*
X160361332Y-85560819D02*
X159694666Y-85560819D01*
X159694666Y-85560819D02*
X160123237Y-86560819D01*
X170060857Y-80718819D02*
X170394190Y-80242628D01*
X170632285Y-80718819D02*
X170632285Y-79718819D01*
X170632285Y-79718819D02*
X170251333Y-79718819D01*
X170251333Y-79718819D02*
X170156095Y-79766438D01*
X170156095Y-79766438D02*
X170108476Y-79814057D01*
X170108476Y-79814057D02*
X170060857Y-79909295D01*
X170060857Y-79909295D02*
X170060857Y-80052152D01*
X170060857Y-80052152D02*
X170108476Y-80147390D01*
X170108476Y-80147390D02*
X170156095Y-80195009D01*
X170156095Y-80195009D02*
X170251333Y-80242628D01*
X170251333Y-80242628D02*
X170632285Y-80242628D01*
X169108476Y-80718819D02*
X169679904Y-80718819D01*
X169394190Y-80718819D02*
X169394190Y-79718819D01*
X169394190Y-79718819D02*
X169489428Y-79861676D01*
X169489428Y-79861676D02*
X169584666Y-79956914D01*
X169584666Y-79956914D02*
X169679904Y-80004533D01*
X168156095Y-80718819D02*
X168727523Y-80718819D01*
X168441809Y-80718819D02*
X168441809Y-79718819D01*
X168441809Y-79718819D02*
X168537047Y-79861676D01*
X168537047Y-79861676D02*
X168632285Y-79956914D01*
X168632285Y-79956914D02*
X168727523Y-80004533D01*
X174632857Y-89100819D02*
X174966190Y-88624628D01*
X175204285Y-89100819D02*
X175204285Y-88100819D01*
X175204285Y-88100819D02*
X174823333Y-88100819D01*
X174823333Y-88100819D02*
X174728095Y-88148438D01*
X174728095Y-88148438D02*
X174680476Y-88196057D01*
X174680476Y-88196057D02*
X174632857Y-88291295D01*
X174632857Y-88291295D02*
X174632857Y-88434152D01*
X174632857Y-88434152D02*
X174680476Y-88529390D01*
X174680476Y-88529390D02*
X174728095Y-88577009D01*
X174728095Y-88577009D02*
X174823333Y-88624628D01*
X174823333Y-88624628D02*
X175204285Y-88624628D01*
X173680476Y-89100819D02*
X174251904Y-89100819D01*
X173966190Y-89100819D02*
X173966190Y-88100819D01*
X173966190Y-88100819D02*
X174061428Y-88243676D01*
X174061428Y-88243676D02*
X174156666Y-88338914D01*
X174156666Y-88338914D02*
X174251904Y-88386533D01*
X173061428Y-88100819D02*
X172966190Y-88100819D01*
X172966190Y-88100819D02*
X172870952Y-88148438D01*
X172870952Y-88148438D02*
X172823333Y-88196057D01*
X172823333Y-88196057D02*
X172775714Y-88291295D01*
X172775714Y-88291295D02*
X172728095Y-88481771D01*
X172728095Y-88481771D02*
X172728095Y-88719866D01*
X172728095Y-88719866D02*
X172775714Y-88910342D01*
X172775714Y-88910342D02*
X172823333Y-89005580D01*
X172823333Y-89005580D02*
X172870952Y-89053200D01*
X172870952Y-89053200D02*
X172966190Y-89100819D01*
X172966190Y-89100819D02*
X173061428Y-89100819D01*
X173061428Y-89100819D02*
X173156666Y-89053200D01*
X173156666Y-89053200D02*
X173204285Y-89005580D01*
X173204285Y-89005580D02*
X173251904Y-88910342D01*
X173251904Y-88910342D02*
X173299523Y-88719866D01*
X173299523Y-88719866D02*
X173299523Y-88481771D01*
X173299523Y-88481771D02*
X173251904Y-88291295D01*
X173251904Y-88291295D02*
X173204285Y-88196057D01*
X173204285Y-88196057D02*
X173156666Y-88148438D01*
X173156666Y-88148438D02*
X173061428Y-88100819D01*
X166282666Y-77162819D02*
X166615999Y-76686628D01*
X166854094Y-77162819D02*
X166854094Y-76162819D01*
X166854094Y-76162819D02*
X166473142Y-76162819D01*
X166473142Y-76162819D02*
X166377904Y-76210438D01*
X166377904Y-76210438D02*
X166330285Y-76258057D01*
X166330285Y-76258057D02*
X166282666Y-76353295D01*
X166282666Y-76353295D02*
X166282666Y-76496152D01*
X166282666Y-76496152D02*
X166330285Y-76591390D01*
X166330285Y-76591390D02*
X166377904Y-76639009D01*
X166377904Y-76639009D02*
X166473142Y-76686628D01*
X166473142Y-76686628D02*
X166854094Y-76686628D01*
X165425523Y-76162819D02*
X165615999Y-76162819D01*
X165615999Y-76162819D02*
X165711237Y-76210438D01*
X165711237Y-76210438D02*
X165758856Y-76258057D01*
X165758856Y-76258057D02*
X165854094Y-76400914D01*
X165854094Y-76400914D02*
X165901713Y-76591390D01*
X165901713Y-76591390D02*
X165901713Y-76972342D01*
X165901713Y-76972342D02*
X165854094Y-77067580D01*
X165854094Y-77067580D02*
X165806475Y-77115200D01*
X165806475Y-77115200D02*
X165711237Y-77162819D01*
X165711237Y-77162819D02*
X165520761Y-77162819D01*
X165520761Y-77162819D02*
X165425523Y-77115200D01*
X165425523Y-77115200D02*
X165377904Y-77067580D01*
X165377904Y-77067580D02*
X165330285Y-76972342D01*
X165330285Y-76972342D02*
X165330285Y-76734247D01*
X165330285Y-76734247D02*
X165377904Y-76639009D01*
X165377904Y-76639009D02*
X165425523Y-76591390D01*
X165425523Y-76591390D02*
X165520761Y-76543771D01*
X165520761Y-76543771D02*
X165711237Y-76543771D01*
X165711237Y-76543771D02*
X165806475Y-76591390D01*
X165806475Y-76591390D02*
X165854094Y-76639009D01*
X165854094Y-76639009D02*
X165901713Y-76734247D01*
X152645904Y-91402819D02*
X152074476Y-91402819D01*
X152360190Y-92402819D02*
X152360190Y-91402819D01*
X151741142Y-92402819D02*
X151741142Y-91402819D01*
X151741142Y-91402819D02*
X151360190Y-91402819D01*
X151360190Y-91402819D02*
X151264952Y-91450438D01*
X151264952Y-91450438D02*
X151217333Y-91498057D01*
X151217333Y-91498057D02*
X151169714Y-91593295D01*
X151169714Y-91593295D02*
X151169714Y-91736152D01*
X151169714Y-91736152D02*
X151217333Y-91831390D01*
X151217333Y-91831390D02*
X151264952Y-91879009D01*
X151264952Y-91879009D02*
X151360190Y-91926628D01*
X151360190Y-91926628D02*
X151741142Y-91926628D01*
X150217333Y-92402819D02*
X150788761Y-92402819D01*
X150503047Y-92402819D02*
X150503047Y-91402819D01*
X150503047Y-91402819D02*
X150598285Y-91545676D01*
X150598285Y-91545676D02*
X150693523Y-91640914D01*
X150693523Y-91640914D02*
X150788761Y-91688533D01*
X155106666Y-71320819D02*
X155439999Y-70844628D01*
X155678094Y-71320819D02*
X155678094Y-70320819D01*
X155678094Y-70320819D02*
X155297142Y-70320819D01*
X155297142Y-70320819D02*
X155201904Y-70368438D01*
X155201904Y-70368438D02*
X155154285Y-70416057D01*
X155154285Y-70416057D02*
X155106666Y-70511295D01*
X155106666Y-70511295D02*
X155106666Y-70654152D01*
X155106666Y-70654152D02*
X155154285Y-70749390D01*
X155154285Y-70749390D02*
X155201904Y-70797009D01*
X155201904Y-70797009D02*
X155297142Y-70844628D01*
X155297142Y-70844628D02*
X155678094Y-70844628D01*
X154154285Y-71320819D02*
X154725713Y-71320819D01*
X154439999Y-71320819D02*
X154439999Y-70320819D01*
X154439999Y-70320819D02*
X154535237Y-70463676D01*
X154535237Y-70463676D02*
X154630475Y-70558914D01*
X154630475Y-70558914D02*
X154725713Y-70606533D01*
X142914666Y-93069580D02*
X142962285Y-93117200D01*
X142962285Y-93117200D02*
X143105142Y-93164819D01*
X143105142Y-93164819D02*
X143200380Y-93164819D01*
X143200380Y-93164819D02*
X143343237Y-93117200D01*
X143343237Y-93117200D02*
X143438475Y-93021961D01*
X143438475Y-93021961D02*
X143486094Y-92926723D01*
X143486094Y-92926723D02*
X143533713Y-92736247D01*
X143533713Y-92736247D02*
X143533713Y-92593390D01*
X143533713Y-92593390D02*
X143486094Y-92402914D01*
X143486094Y-92402914D02*
X143438475Y-92307676D01*
X143438475Y-92307676D02*
X143343237Y-92212438D01*
X143343237Y-92212438D02*
X143200380Y-92164819D01*
X143200380Y-92164819D02*
X143105142Y-92164819D01*
X143105142Y-92164819D02*
X142962285Y-92212438D01*
X142962285Y-92212438D02*
X142914666Y-92260057D01*
X141962285Y-93164819D02*
X142533713Y-93164819D01*
X142247999Y-93164819D02*
X142247999Y-92164819D01*
X142247999Y-92164819D02*
X142343237Y-92307676D01*
X142343237Y-92307676D02*
X142438475Y-92402914D01*
X142438475Y-92402914D02*
X142533713Y-92450533D01*
X146278303Y-88733192D02*
X145705883Y-89305612D01*
X145705883Y-89305612D02*
X145604868Y-89339284D01*
X145604868Y-89339284D02*
X145537524Y-89339284D01*
X145537524Y-89339284D02*
X145436509Y-89305612D01*
X145436509Y-89305612D02*
X145301822Y-89170925D01*
X145301822Y-89170925D02*
X145268150Y-89069910D01*
X145268150Y-89069910D02*
X145268150Y-89002566D01*
X145268150Y-89002566D02*
X145301822Y-88901551D01*
X145301822Y-88901551D02*
X145874242Y-88329131D01*
X144460028Y-88329131D02*
X144864089Y-88733192D01*
X144662059Y-88531162D02*
X145369165Y-87824055D01*
X145369165Y-87824055D02*
X145335494Y-87992414D01*
X145335494Y-87992414D02*
X145335494Y-88127101D01*
X145335494Y-88127101D02*
X145369165Y-88228116D01*
X163234666Y-85290819D02*
X163567999Y-84814628D01*
X163806094Y-85290819D02*
X163806094Y-84290819D01*
X163806094Y-84290819D02*
X163425142Y-84290819D01*
X163425142Y-84290819D02*
X163329904Y-84338438D01*
X163329904Y-84338438D02*
X163282285Y-84386057D01*
X163282285Y-84386057D02*
X163234666Y-84481295D01*
X163234666Y-84481295D02*
X163234666Y-84624152D01*
X163234666Y-84624152D02*
X163282285Y-84719390D01*
X163282285Y-84719390D02*
X163329904Y-84767009D01*
X163329904Y-84767009D02*
X163425142Y-84814628D01*
X163425142Y-84814628D02*
X163806094Y-84814628D01*
X162758475Y-85290819D02*
X162567999Y-85290819D01*
X162567999Y-85290819D02*
X162472761Y-85243200D01*
X162472761Y-85243200D02*
X162425142Y-85195580D01*
X162425142Y-85195580D02*
X162329904Y-85052723D01*
X162329904Y-85052723D02*
X162282285Y-84862247D01*
X162282285Y-84862247D02*
X162282285Y-84481295D01*
X162282285Y-84481295D02*
X162329904Y-84386057D01*
X162329904Y-84386057D02*
X162377523Y-84338438D01*
X162377523Y-84338438D02*
X162472761Y-84290819D01*
X162472761Y-84290819D02*
X162663237Y-84290819D01*
X162663237Y-84290819D02*
X162758475Y-84338438D01*
X162758475Y-84338438D02*
X162806094Y-84386057D01*
X162806094Y-84386057D02*
X162853713Y-84481295D01*
X162853713Y-84481295D02*
X162853713Y-84719390D01*
X162853713Y-84719390D02*
X162806094Y-84814628D01*
X162806094Y-84814628D02*
X162758475Y-84862247D01*
X162758475Y-84862247D02*
X162663237Y-84909866D01*
X162663237Y-84909866D02*
X162472761Y-84909866D01*
X162472761Y-84909866D02*
X162377523Y-84862247D01*
X162377523Y-84862247D02*
X162329904Y-84814628D01*
X162329904Y-84814628D02*
X162282285Y-84719390D01*
X139945904Y-91402819D02*
X139374476Y-91402819D01*
X139660190Y-92402819D02*
X139660190Y-91402819D01*
X139041142Y-92402819D02*
X139041142Y-91402819D01*
X139041142Y-91402819D02*
X138660190Y-91402819D01*
X138660190Y-91402819D02*
X138564952Y-91450438D01*
X138564952Y-91450438D02*
X138517333Y-91498057D01*
X138517333Y-91498057D02*
X138469714Y-91593295D01*
X138469714Y-91593295D02*
X138469714Y-91736152D01*
X138469714Y-91736152D02*
X138517333Y-91831390D01*
X138517333Y-91831390D02*
X138564952Y-91879009D01*
X138564952Y-91879009D02*
X138660190Y-91926628D01*
X138660190Y-91926628D02*
X139041142Y-91926628D01*
X138088761Y-91498057D02*
X138041142Y-91450438D01*
X138041142Y-91450438D02*
X137945904Y-91402819D01*
X137945904Y-91402819D02*
X137707809Y-91402819D01*
X137707809Y-91402819D02*
X137612571Y-91450438D01*
X137612571Y-91450438D02*
X137564952Y-91498057D01*
X137564952Y-91498057D02*
X137517333Y-91593295D01*
X137517333Y-91593295D02*
X137517333Y-91688533D01*
X137517333Y-91688533D02*
X137564952Y-91831390D01*
X137564952Y-91831390D02*
X138136380Y-92402819D01*
X138136380Y-92402819D02*
X137517333Y-92402819D01*
X139104666Y-79702819D02*
X139437999Y-79226628D01*
X139676094Y-79702819D02*
X139676094Y-78702819D01*
X139676094Y-78702819D02*
X139295142Y-78702819D01*
X139295142Y-78702819D02*
X139199904Y-78750438D01*
X139199904Y-78750438D02*
X139152285Y-78798057D01*
X139152285Y-78798057D02*
X139104666Y-78893295D01*
X139104666Y-78893295D02*
X139104666Y-79036152D01*
X139104666Y-79036152D02*
X139152285Y-79131390D01*
X139152285Y-79131390D02*
X139199904Y-79179009D01*
X139199904Y-79179009D02*
X139295142Y-79226628D01*
X139295142Y-79226628D02*
X139676094Y-79226628D01*
X138723713Y-78798057D02*
X138676094Y-78750438D01*
X138676094Y-78750438D02*
X138580856Y-78702819D01*
X138580856Y-78702819D02*
X138342761Y-78702819D01*
X138342761Y-78702819D02*
X138247523Y-78750438D01*
X138247523Y-78750438D02*
X138199904Y-78798057D01*
X138199904Y-78798057D02*
X138152285Y-78893295D01*
X138152285Y-78893295D02*
X138152285Y-78988533D01*
X138152285Y-78988533D02*
X138199904Y-79131390D01*
X138199904Y-79131390D02*
X138771332Y-79702819D01*
X138771332Y-79702819D02*
X138152285Y-79702819D01*
X170410094Y-86560819D02*
X170410094Y-85560819D01*
X170410094Y-85560819D02*
X170171999Y-85560819D01*
X170171999Y-85560819D02*
X170029142Y-85608438D01*
X170029142Y-85608438D02*
X169933904Y-85703676D01*
X169933904Y-85703676D02*
X169886285Y-85798914D01*
X169886285Y-85798914D02*
X169838666Y-85989390D01*
X169838666Y-85989390D02*
X169838666Y-86132247D01*
X169838666Y-86132247D02*
X169886285Y-86322723D01*
X169886285Y-86322723D02*
X169933904Y-86417961D01*
X169933904Y-86417961D02*
X170029142Y-86513200D01*
X170029142Y-86513200D02*
X170171999Y-86560819D01*
X170171999Y-86560819D02*
X170410094Y-86560819D01*
X169457713Y-85656057D02*
X169410094Y-85608438D01*
X169410094Y-85608438D02*
X169314856Y-85560819D01*
X169314856Y-85560819D02*
X169076761Y-85560819D01*
X169076761Y-85560819D02*
X168981523Y-85608438D01*
X168981523Y-85608438D02*
X168933904Y-85656057D01*
X168933904Y-85656057D02*
X168886285Y-85751295D01*
X168886285Y-85751295D02*
X168886285Y-85846533D01*
X168886285Y-85846533D02*
X168933904Y-85989390D01*
X168933904Y-85989390D02*
X169505332Y-86560819D01*
X169505332Y-86560819D02*
X168886285Y-86560819D01*
X139358666Y-74527580D02*
X139406285Y-74575200D01*
X139406285Y-74575200D02*
X139549142Y-74622819D01*
X139549142Y-74622819D02*
X139644380Y-74622819D01*
X139644380Y-74622819D02*
X139787237Y-74575200D01*
X139787237Y-74575200D02*
X139882475Y-74479961D01*
X139882475Y-74479961D02*
X139930094Y-74384723D01*
X139930094Y-74384723D02*
X139977713Y-74194247D01*
X139977713Y-74194247D02*
X139977713Y-74051390D01*
X139977713Y-74051390D02*
X139930094Y-73860914D01*
X139930094Y-73860914D02*
X139882475Y-73765676D01*
X139882475Y-73765676D02*
X139787237Y-73670438D01*
X139787237Y-73670438D02*
X139644380Y-73622819D01*
X139644380Y-73622819D02*
X139549142Y-73622819D01*
X139549142Y-73622819D02*
X139406285Y-73670438D01*
X139406285Y-73670438D02*
X139358666Y-73718057D01*
X139025332Y-73622819D02*
X138406285Y-73622819D01*
X138406285Y-73622819D02*
X138739618Y-74003771D01*
X138739618Y-74003771D02*
X138596761Y-74003771D01*
X138596761Y-74003771D02*
X138501523Y-74051390D01*
X138501523Y-74051390D02*
X138453904Y-74099009D01*
X138453904Y-74099009D02*
X138406285Y-74194247D01*
X138406285Y-74194247D02*
X138406285Y-74432342D01*
X138406285Y-74432342D02*
X138453904Y-74527580D01*
X138453904Y-74527580D02*
X138501523Y-74575200D01*
X138501523Y-74575200D02*
X138596761Y-74622819D01*
X138596761Y-74622819D02*
X138882475Y-74622819D01*
X138882475Y-74622819D02*
X138977713Y-74575200D01*
X138977713Y-74575200D02*
X139025332Y-74527580D01*
X147486666Y-94085580D02*
X147534285Y-94133200D01*
X147534285Y-94133200D02*
X147677142Y-94180819D01*
X147677142Y-94180819D02*
X147772380Y-94180819D01*
X147772380Y-94180819D02*
X147915237Y-94133200D01*
X147915237Y-94133200D02*
X148010475Y-94037961D01*
X148010475Y-94037961D02*
X148058094Y-93942723D01*
X148058094Y-93942723D02*
X148105713Y-93752247D01*
X148105713Y-93752247D02*
X148105713Y-93609390D01*
X148105713Y-93609390D02*
X148058094Y-93418914D01*
X148058094Y-93418914D02*
X148010475Y-93323676D01*
X148010475Y-93323676D02*
X147915237Y-93228438D01*
X147915237Y-93228438D02*
X147772380Y-93180819D01*
X147772380Y-93180819D02*
X147677142Y-93180819D01*
X147677142Y-93180819D02*
X147534285Y-93228438D01*
X147534285Y-93228438D02*
X147486666Y-93276057D01*
X146581904Y-93180819D02*
X147058094Y-93180819D01*
X147058094Y-93180819D02*
X147105713Y-93657009D01*
X147105713Y-93657009D02*
X147058094Y-93609390D01*
X147058094Y-93609390D02*
X146962856Y-93561771D01*
X146962856Y-93561771D02*
X146724761Y-93561771D01*
X146724761Y-93561771D02*
X146629523Y-93609390D01*
X146629523Y-93609390D02*
X146581904Y-93657009D01*
X146581904Y-93657009D02*
X146534285Y-93752247D01*
X146534285Y-93752247D02*
X146534285Y-93990342D01*
X146534285Y-93990342D02*
X146581904Y-94085580D01*
X146581904Y-94085580D02*
X146629523Y-94133200D01*
X146629523Y-94133200D02*
X146724761Y-94180819D01*
X146724761Y-94180819D02*
X146962856Y-94180819D01*
X146962856Y-94180819D02*
X147058094Y-94133200D01*
X147058094Y-94133200D02*
X147105713Y-94085580D01*
X134342094Y-80464819D02*
X134342094Y-79464819D01*
X134342094Y-79464819D02*
X134103999Y-79464819D01*
X134103999Y-79464819D02*
X133961142Y-79512438D01*
X133961142Y-79512438D02*
X133865904Y-79607676D01*
X133865904Y-79607676D02*
X133818285Y-79702914D01*
X133818285Y-79702914D02*
X133770666Y-79893390D01*
X133770666Y-79893390D02*
X133770666Y-80036247D01*
X133770666Y-80036247D02*
X133818285Y-80226723D01*
X133818285Y-80226723D02*
X133865904Y-80321961D01*
X133865904Y-80321961D02*
X133961142Y-80417200D01*
X133961142Y-80417200D02*
X134103999Y-80464819D01*
X134103999Y-80464819D02*
X134342094Y-80464819D01*
X133437332Y-79464819D02*
X132818285Y-79464819D01*
X132818285Y-79464819D02*
X133151618Y-79845771D01*
X133151618Y-79845771D02*
X133008761Y-79845771D01*
X133008761Y-79845771D02*
X132913523Y-79893390D01*
X132913523Y-79893390D02*
X132865904Y-79941009D01*
X132865904Y-79941009D02*
X132818285Y-80036247D01*
X132818285Y-80036247D02*
X132818285Y-80274342D01*
X132818285Y-80274342D02*
X132865904Y-80369580D01*
X132865904Y-80369580D02*
X132913523Y-80417200D01*
X132913523Y-80417200D02*
X133008761Y-80464819D01*
X133008761Y-80464819D02*
X133294475Y-80464819D01*
X133294475Y-80464819D02*
X133389713Y-80417200D01*
X133389713Y-80417200D02*
X133437332Y-80369580D01*
X161281904Y-81750819D02*
X160710476Y-81750819D01*
X160996190Y-82750819D02*
X160996190Y-81750819D01*
X160377142Y-82750819D02*
X160377142Y-81750819D01*
X160377142Y-81750819D02*
X159996190Y-81750819D01*
X159996190Y-81750819D02*
X159900952Y-81798438D01*
X159900952Y-81798438D02*
X159853333Y-81846057D01*
X159853333Y-81846057D02*
X159805714Y-81941295D01*
X159805714Y-81941295D02*
X159805714Y-82084152D01*
X159805714Y-82084152D02*
X159853333Y-82179390D01*
X159853333Y-82179390D02*
X159900952Y-82227009D01*
X159900952Y-82227009D02*
X159996190Y-82274628D01*
X159996190Y-82274628D02*
X160377142Y-82274628D01*
X159472380Y-81750819D02*
X158805714Y-81750819D01*
X158805714Y-81750819D02*
X159234285Y-82750819D01*
X166536666Y-90624819D02*
X166869999Y-90148628D01*
X167108094Y-90624819D02*
X167108094Y-89624819D01*
X167108094Y-89624819D02*
X166727142Y-89624819D01*
X166727142Y-89624819D02*
X166631904Y-89672438D01*
X166631904Y-89672438D02*
X166584285Y-89720057D01*
X166584285Y-89720057D02*
X166536666Y-89815295D01*
X166536666Y-89815295D02*
X166536666Y-89958152D01*
X166536666Y-89958152D02*
X166584285Y-90053390D01*
X166584285Y-90053390D02*
X166631904Y-90101009D01*
X166631904Y-90101009D02*
X166727142Y-90148628D01*
X166727142Y-90148628D02*
X167108094Y-90148628D01*
X165631904Y-89624819D02*
X166108094Y-89624819D01*
X166108094Y-89624819D02*
X166155713Y-90101009D01*
X166155713Y-90101009D02*
X166108094Y-90053390D01*
X166108094Y-90053390D02*
X166012856Y-90005771D01*
X166012856Y-90005771D02*
X165774761Y-90005771D01*
X165774761Y-90005771D02*
X165679523Y-90053390D01*
X165679523Y-90053390D02*
X165631904Y-90101009D01*
X165631904Y-90101009D02*
X165584285Y-90196247D01*
X165584285Y-90196247D02*
X165584285Y-90434342D01*
X165584285Y-90434342D02*
X165631904Y-90529580D01*
X165631904Y-90529580D02*
X165679523Y-90577200D01*
X165679523Y-90577200D02*
X165774761Y-90624819D01*
X165774761Y-90624819D02*
X166012856Y-90624819D01*
X166012856Y-90624819D02*
X166108094Y-90577200D01*
X166108094Y-90577200D02*
X166155713Y-90529580D01*
X173648666Y-90878819D02*
X173981999Y-90402628D01*
X174220094Y-90878819D02*
X174220094Y-89878819D01*
X174220094Y-89878819D02*
X173839142Y-89878819D01*
X173839142Y-89878819D02*
X173743904Y-89926438D01*
X173743904Y-89926438D02*
X173696285Y-89974057D01*
X173696285Y-89974057D02*
X173648666Y-90069295D01*
X173648666Y-90069295D02*
X173648666Y-90212152D01*
X173648666Y-90212152D02*
X173696285Y-90307390D01*
X173696285Y-90307390D02*
X173743904Y-90355009D01*
X173743904Y-90355009D02*
X173839142Y-90402628D01*
X173839142Y-90402628D02*
X174220094Y-90402628D01*
X173077237Y-90307390D02*
X173172475Y-90259771D01*
X173172475Y-90259771D02*
X173220094Y-90212152D01*
X173220094Y-90212152D02*
X173267713Y-90116914D01*
X173267713Y-90116914D02*
X173267713Y-90069295D01*
X173267713Y-90069295D02*
X173220094Y-89974057D01*
X173220094Y-89974057D02*
X173172475Y-89926438D01*
X173172475Y-89926438D02*
X173077237Y-89878819D01*
X173077237Y-89878819D02*
X172886761Y-89878819D01*
X172886761Y-89878819D02*
X172791523Y-89926438D01*
X172791523Y-89926438D02*
X172743904Y-89974057D01*
X172743904Y-89974057D02*
X172696285Y-90069295D01*
X172696285Y-90069295D02*
X172696285Y-90116914D01*
X172696285Y-90116914D02*
X172743904Y-90212152D01*
X172743904Y-90212152D02*
X172791523Y-90259771D01*
X172791523Y-90259771D02*
X172886761Y-90307390D01*
X172886761Y-90307390D02*
X173077237Y-90307390D01*
X173077237Y-90307390D02*
X173172475Y-90355009D01*
X173172475Y-90355009D02*
X173220094Y-90402628D01*
X173220094Y-90402628D02*
X173267713Y-90497866D01*
X173267713Y-90497866D02*
X173267713Y-90688342D01*
X173267713Y-90688342D02*
X173220094Y-90783580D01*
X173220094Y-90783580D02*
X173172475Y-90831200D01*
X173172475Y-90831200D02*
X173077237Y-90878819D01*
X173077237Y-90878819D02*
X172886761Y-90878819D01*
X172886761Y-90878819D02*
X172791523Y-90831200D01*
X172791523Y-90831200D02*
X172743904Y-90783580D01*
X172743904Y-90783580D02*
X172696285Y-90688342D01*
X172696285Y-90688342D02*
X172696285Y-90497866D01*
X172696285Y-90497866D02*
X172743904Y-90402628D01*
X172743904Y-90402628D02*
X172791523Y-90355009D01*
X172791523Y-90355009D02*
X172886761Y-90307390D01*
X162440857Y-90878819D02*
X162774190Y-90402628D01*
X163012285Y-90878819D02*
X163012285Y-89878819D01*
X163012285Y-89878819D02*
X162631333Y-89878819D01*
X162631333Y-89878819D02*
X162536095Y-89926438D01*
X162536095Y-89926438D02*
X162488476Y-89974057D01*
X162488476Y-89974057D02*
X162440857Y-90069295D01*
X162440857Y-90069295D02*
X162440857Y-90212152D01*
X162440857Y-90212152D02*
X162488476Y-90307390D01*
X162488476Y-90307390D02*
X162536095Y-90355009D01*
X162536095Y-90355009D02*
X162631333Y-90402628D01*
X162631333Y-90402628D02*
X163012285Y-90402628D01*
X161488476Y-90878819D02*
X162059904Y-90878819D01*
X161774190Y-90878819D02*
X161774190Y-89878819D01*
X161774190Y-89878819D02*
X161869428Y-90021676D01*
X161869428Y-90021676D02*
X161964666Y-90116914D01*
X161964666Y-90116914D02*
X162059904Y-90164533D01*
X161107523Y-89974057D02*
X161059904Y-89926438D01*
X161059904Y-89926438D02*
X160964666Y-89878819D01*
X160964666Y-89878819D02*
X160726571Y-89878819D01*
X160726571Y-89878819D02*
X160631333Y-89926438D01*
X160631333Y-89926438D02*
X160583714Y-89974057D01*
X160583714Y-89974057D02*
X160536095Y-90069295D01*
X160536095Y-90069295D02*
X160536095Y-90164533D01*
X160536095Y-90164533D02*
X160583714Y-90307390D01*
X160583714Y-90307390D02*
X161155142Y-90878819D01*
X161155142Y-90878819D02*
X160536095Y-90878819D01*
X144184666Y-74527580D02*
X144232285Y-74575200D01*
X144232285Y-74575200D02*
X144375142Y-74622819D01*
X144375142Y-74622819D02*
X144470380Y-74622819D01*
X144470380Y-74622819D02*
X144613237Y-74575200D01*
X144613237Y-74575200D02*
X144708475Y-74479961D01*
X144708475Y-74479961D02*
X144756094Y-74384723D01*
X144756094Y-74384723D02*
X144803713Y-74194247D01*
X144803713Y-74194247D02*
X144803713Y-74051390D01*
X144803713Y-74051390D02*
X144756094Y-73860914D01*
X144756094Y-73860914D02*
X144708475Y-73765676D01*
X144708475Y-73765676D02*
X144613237Y-73670438D01*
X144613237Y-73670438D02*
X144470380Y-73622819D01*
X144470380Y-73622819D02*
X144375142Y-73622819D01*
X144375142Y-73622819D02*
X144232285Y-73670438D01*
X144232285Y-73670438D02*
X144184666Y-73718057D01*
X143803713Y-73718057D02*
X143756094Y-73670438D01*
X143756094Y-73670438D02*
X143660856Y-73622819D01*
X143660856Y-73622819D02*
X143422761Y-73622819D01*
X143422761Y-73622819D02*
X143327523Y-73670438D01*
X143327523Y-73670438D02*
X143279904Y-73718057D01*
X143279904Y-73718057D02*
X143232285Y-73813295D01*
X143232285Y-73813295D02*
X143232285Y-73908533D01*
X143232285Y-73908533D02*
X143279904Y-74051390D01*
X143279904Y-74051390D02*
X143851332Y-74622819D01*
X143851332Y-74622819D02*
X143232285Y-74622819D01*
X172307238Y-76750057D02*
X172402476Y-76702438D01*
X172402476Y-76702438D02*
X172497714Y-76607200D01*
X172497714Y-76607200D02*
X172640571Y-76464342D01*
X172640571Y-76464342D02*
X172735809Y-76416723D01*
X172735809Y-76416723D02*
X172831047Y-76416723D01*
X172783428Y-76654819D02*
X172878666Y-76607200D01*
X172878666Y-76607200D02*
X172973904Y-76511961D01*
X172973904Y-76511961D02*
X173021523Y-76321485D01*
X173021523Y-76321485D02*
X173021523Y-75988152D01*
X173021523Y-75988152D02*
X172973904Y-75797676D01*
X172973904Y-75797676D02*
X172878666Y-75702438D01*
X172878666Y-75702438D02*
X172783428Y-75654819D01*
X172783428Y-75654819D02*
X172592952Y-75654819D01*
X172592952Y-75654819D02*
X172497714Y-75702438D01*
X172497714Y-75702438D02*
X172402476Y-75797676D01*
X172402476Y-75797676D02*
X172354857Y-75988152D01*
X172354857Y-75988152D02*
X172354857Y-76321485D01*
X172354857Y-76321485D02*
X172402476Y-76511961D01*
X172402476Y-76511961D02*
X172497714Y-76607200D01*
X172497714Y-76607200D02*
X172592952Y-76654819D01*
X172592952Y-76654819D02*
X172783428Y-76654819D01*
X171402476Y-76654819D02*
X171973904Y-76654819D01*
X171688190Y-76654819D02*
X171688190Y-75654819D01*
X171688190Y-75654819D02*
X171783428Y-75797676D01*
X171783428Y-75797676D02*
X171878666Y-75892914D01*
X171878666Y-75892914D02*
X171973904Y-75940533D01*
X140882666Y-87227580D02*
X140930285Y-87275200D01*
X140930285Y-87275200D02*
X141073142Y-87322819D01*
X141073142Y-87322819D02*
X141168380Y-87322819D01*
X141168380Y-87322819D02*
X141311237Y-87275200D01*
X141311237Y-87275200D02*
X141406475Y-87179961D01*
X141406475Y-87179961D02*
X141454094Y-87084723D01*
X141454094Y-87084723D02*
X141501713Y-86894247D01*
X141501713Y-86894247D02*
X141501713Y-86751390D01*
X141501713Y-86751390D02*
X141454094Y-86560914D01*
X141454094Y-86560914D02*
X141406475Y-86465676D01*
X141406475Y-86465676D02*
X141311237Y-86370438D01*
X141311237Y-86370438D02*
X141168380Y-86322819D01*
X141168380Y-86322819D02*
X141073142Y-86322819D01*
X141073142Y-86322819D02*
X140930285Y-86370438D01*
X140930285Y-86370438D02*
X140882666Y-86418057D01*
X140025523Y-86322819D02*
X140215999Y-86322819D01*
X140215999Y-86322819D02*
X140311237Y-86370438D01*
X140311237Y-86370438D02*
X140358856Y-86418057D01*
X140358856Y-86418057D02*
X140454094Y-86560914D01*
X140454094Y-86560914D02*
X140501713Y-86751390D01*
X140501713Y-86751390D02*
X140501713Y-87132342D01*
X140501713Y-87132342D02*
X140454094Y-87227580D01*
X140454094Y-87227580D02*
X140406475Y-87275200D01*
X140406475Y-87275200D02*
X140311237Y-87322819D01*
X140311237Y-87322819D02*
X140120761Y-87322819D01*
X140120761Y-87322819D02*
X140025523Y-87275200D01*
X140025523Y-87275200D02*
X139977904Y-87227580D01*
X139977904Y-87227580D02*
X139930285Y-87132342D01*
X139930285Y-87132342D02*
X139930285Y-86894247D01*
X139930285Y-86894247D02*
X139977904Y-86799009D01*
X139977904Y-86799009D02*
X140025523Y-86751390D01*
X140025523Y-86751390D02*
X140120761Y-86703771D01*
X140120761Y-86703771D02*
X140311237Y-86703771D01*
X140311237Y-86703771D02*
X140406475Y-86751390D01*
X140406475Y-86751390D02*
X140454094Y-86799009D01*
X140454094Y-86799009D02*
X140501713Y-86894247D01*
X149161332Y-74739200D02*
X149018475Y-74786819D01*
X149018475Y-74786819D02*
X148780380Y-74786819D01*
X148780380Y-74786819D02*
X148685142Y-74739200D01*
X148685142Y-74739200D02*
X148637523Y-74691580D01*
X148637523Y-74691580D02*
X148589904Y-74596342D01*
X148589904Y-74596342D02*
X148589904Y-74501104D01*
X148589904Y-74501104D02*
X148637523Y-74405866D01*
X148637523Y-74405866D02*
X148685142Y-74358247D01*
X148685142Y-74358247D02*
X148780380Y-74310628D01*
X148780380Y-74310628D02*
X148970856Y-74263009D01*
X148970856Y-74263009D02*
X149066094Y-74215390D01*
X149066094Y-74215390D02*
X149113713Y-74167771D01*
X149113713Y-74167771D02*
X149161332Y-74072533D01*
X149161332Y-74072533D02*
X149161332Y-73977295D01*
X149161332Y-73977295D02*
X149113713Y-73882057D01*
X149113713Y-73882057D02*
X149066094Y-73834438D01*
X149066094Y-73834438D02*
X148970856Y-73786819D01*
X148970856Y-73786819D02*
X148732761Y-73786819D01*
X148732761Y-73786819D02*
X148589904Y-73834438D01*
X148256570Y-73786819D02*
X148018475Y-74786819D01*
X148018475Y-74786819D02*
X147827999Y-74072533D01*
X147827999Y-74072533D02*
X147637523Y-74786819D01*
X147637523Y-74786819D02*
X147399428Y-73786819D01*
X146494666Y-74786819D02*
X147066094Y-74786819D01*
X146780380Y-74786819D02*
X146780380Y-73786819D01*
X146780380Y-73786819D02*
X146875618Y-73929676D01*
X146875618Y-73929676D02*
X146970856Y-74024914D01*
X146970856Y-74024914D02*
X147066094Y-74072533D01*
D12*
%TO.C,Y2*%
X159931000Y-75216000D02*
X160331000Y-75216000D01*
X157931000Y-75216000D02*
X159931000Y-75216000D01*
X160331000Y-75416000D02*
X160331000Y-75566000D01*
X159931000Y-75416000D02*
X160331000Y-75416000D01*
X159931000Y-75416000D02*
X157931000Y-75416000D01*
X157931000Y-75416000D02*
X157931000Y-75566000D01*
X160331000Y-76466000D02*
X160331000Y-76416000D01*
X160331000Y-76466000D02*
X160731000Y-76466000D01*
X160331000Y-79016000D02*
X160331000Y-78866000D01*
X159931000Y-79016000D02*
X160331000Y-79016000D01*
X157931000Y-79016000D02*
X157931000Y-78866000D01*
X157931000Y-79016000D02*
X159931000Y-79016000D01*
%TO.C,R7*%
X169520776Y-81519500D02*
X170030224Y-81519500D01*
X169520776Y-82564500D02*
X170030224Y-82564500D01*
%TO.C,C4*%
X154539733Y-73912000D02*
X154832267Y-73912000D01*
X154539733Y-74932000D02*
X154832267Y-74932000D01*
%TO.C,J2*%
X128712000Y-90859000D02*
X130162000Y-90859000D01*
X130162000Y-90859000D02*
X130162000Y-89059000D01*
X125892000Y-89589000D02*
X125892000Y-77409000D01*
X130162000Y-89059000D02*
X131152000Y-89059000D01*
X128712000Y-76139000D02*
X130162000Y-76139000D01*
X130162000Y-76139000D02*
X130162000Y-77939000D01*
%TO.C,Q2*%
X165940500Y-84806000D02*
X166590500Y-84806000D01*
X165940500Y-84806000D02*
X165290500Y-84806000D01*
X165940500Y-81686000D02*
X167615500Y-81686000D01*
X165940500Y-81686000D02*
X165290500Y-81686000D01*
%TO.C,R4*%
X156972724Y-92978500D02*
X156463276Y-92978500D01*
X156972724Y-91933500D02*
X156463276Y-91933500D01*
%TO.C,R3*%
X141477276Y-76820500D02*
X141986724Y-76820500D01*
X141477276Y-77865500D02*
X141986724Y-77865500D01*
%TO.C,C7*%
X159011233Y-86866000D02*
X159303767Y-86866000D01*
X159011233Y-87886000D02*
X159303767Y-87886000D01*
%TO.C,R11*%
X166115276Y-79741500D02*
X166624724Y-79741500D01*
X166115276Y-80786500D02*
X166624724Y-80786500D01*
%TO.C,R10*%
X170942724Y-88914500D02*
X170433276Y-88914500D01*
X170942724Y-87869500D02*
X170433276Y-87869500D01*
%TO.C,R6*%
X166115276Y-77455500D02*
X166624724Y-77455500D01*
X166115276Y-78500500D02*
X166624724Y-78500500D01*
D11*
%TO.C,TP1*%
X153924000Y-96393000D02*
X153924000Y-92583000D01*
X153924000Y-92583000D02*
X148844000Y-92583000D01*
X148844000Y-96393000D02*
X153924000Y-96393000D01*
X148844000Y-92583000D02*
X148844000Y-96393000D01*
D12*
%TO.C,R1*%
X154940724Y-72658500D02*
X154431276Y-72658500D01*
X154940724Y-71613500D02*
X154431276Y-71613500D01*
%TO.C,C1*%
X142640267Y-91696000D02*
X142347733Y-91696000D01*
X142640267Y-90676000D02*
X142347733Y-90676000D01*
D11*
%TO.C,U1*%
X150622000Y-75993445D02*
X150144703Y-76470742D01*
X150622000Y-75993445D02*
X151099297Y-76470742D01*
X143710031Y-82905414D02*
X142808470Y-82003852D01*
X143303445Y-83312000D02*
X143710031Y-82905414D01*
X143303445Y-83312000D02*
X143780742Y-83789297D01*
X157940555Y-83312000D02*
X157463258Y-82834703D01*
X157940555Y-83312000D02*
X157463258Y-83789297D01*
X150622000Y-90630555D02*
X150144703Y-90153258D01*
X150622000Y-90630555D02*
X151099297Y-90153258D01*
D12*
%TO.C,R9*%
X161797276Y-82789500D02*
X162306724Y-82789500D01*
X161797276Y-83834500D02*
X162306724Y-83834500D01*
%TO.C,TP2*%
X140396000Y-90170000D02*
G75*
G03*
X140396000Y-90170000I-950000J0D01*
G01*
%TO.C,R2*%
X141477276Y-78598500D02*
X141986724Y-78598500D01*
X141477276Y-79643500D02*
X141986724Y-79643500D01*
%TO.C,D2*%
X168538000Y-86841000D02*
X166078000Y-86841000D01*
X168538000Y-85371000D02*
X168538000Y-86841000D01*
X166078000Y-85371000D02*
X168538000Y-85371000D01*
%TO.C,C3*%
X139553733Y-74928000D02*
X139846267Y-74928000D01*
X139553733Y-75948000D02*
X139846267Y-75948000D01*
%TO.C,C5*%
X146958267Y-92712000D02*
X146665733Y-92712000D01*
X146958267Y-91692000D02*
X146665733Y-91692000D01*
%TO.C,D3*%
X134244500Y-83729000D02*
X135044500Y-83729000D01*
X134244500Y-83729000D02*
X133444500Y-83729000D01*
X134244500Y-80609000D02*
X136044500Y-80609000D01*
X134244500Y-80609000D02*
X133444500Y-80609000D01*
%TO.C,TP7*%
X160716000Y-80518000D02*
G75*
G03*
X160716000Y-80518000I-950000J0D01*
G01*
%TO.C,R5*%
X167132724Y-89168500D02*
X166623276Y-89168500D01*
X167132724Y-88123500D02*
X166623276Y-88123500D01*
%TO.C,R8*%
X170942724Y-90692500D02*
X170433276Y-90692500D01*
X170942724Y-89647500D02*
X170433276Y-89647500D01*
%TO.C,R12*%
X158750724Y-90692500D02*
X158241276Y-90692500D01*
X158750724Y-89647500D02*
X158241276Y-89647500D01*
%TO.C,C2*%
X143402267Y-75948000D02*
X143109733Y-75948000D01*
X143402267Y-74928000D02*
X143109733Y-74928000D01*
%TO.C,Q1*%
X170355500Y-75844000D02*
X169705500Y-75844000D01*
X170355500Y-75844000D02*
X171005500Y-75844000D01*
X170355500Y-78964000D02*
X168680500Y-78964000D01*
X170355500Y-78964000D02*
X171005500Y-78964000D01*
%TO.C,C6*%
X141839733Y-87628000D02*
X142132267Y-87628000D01*
X141839733Y-88648000D02*
X142132267Y-88648000D01*
%TO.C,SW1*%
X145628000Y-70332000D02*
X150028000Y-70332000D01*
X145628000Y-71832000D02*
X145628000Y-71932000D01*
X150028000Y-71832000D02*
X150028000Y-71932000D01*
X150028000Y-73432000D02*
X145628000Y-73432000D01*
%TD*%
M02*
